<svg width="40" height="40" viewBox="0 0 40 40" fill="none" xmlns="http://www.w3.org/2000/svg">
<path d="M20 40C31.0457 40 40 31.0457 40 20C40 8.95431 31.0457 0 20 0C8.95431 0 0 8.95431 0 20C0 31.0457 8.95431 40 20 40Z" fill="#393939"/>
<path d="M17.6411 5.60647C16.0567 5.43433 14.2526 5.53811 12.1287 7.43882C10.0045 9.33912 8.5191 14.8341 12.6378 23.2705C16.6772 31.5449 21.007 33.6866 24.8596 33.6289C27.9903 33.5817 30.0592 31.8766 30.2959 31.4016C30.5326 30.9263 30.8422 30.5121 30.1046 29.6839C29.3679 28.8556 27.2471 26.4817 26.8528 26.0796C26.4586 25.6781 25.9986 24.8448 24.9777 25.3282C23.9567 25.8122 23.0762 26.1914 22.5904 26.3849C22.1048 26.5776 20.2135 27.3827 17.2897 21.5557C14.3658 15.7279 15.3361 15.3287 16.2408 14.9727C17.1447 14.6171 17.8872 14.3321 18.2383 14.0722C18.5894 13.812 18.9845 13.5757 18.9701 12.8417C18.9557 12.1069 18.9027 6.77835 18.8986 6.48846C18.8944 6.19898 18.5664 5.70702 17.6411 5.60647Z" fill="white"/>
</svg>
