<svg width="88" height="88" viewBox="0 0 88 88" fill="none" xmlns="http://www.w3.org/2000/svg">
<mask id="path-1-outside-1_686_304" maskUnits="userSpaceOnUse" x="0" y="26.9197" width="88" height="62" fill="black">
<rect fill="white" y="26.9197" width="88" height="62"/>
<path d="M19.2967 28.961C19.7236 29.152 20.1544 29.3305 20.5871 29.5078C20.885 29.6332 21.1828 29.7587 21.4806 29.8845C21.6195 29.9405 21.7583 29.9965 21.9014 30.0542C23.0746 30.5641 23.8528 31.2974 24.4608 32.4266C24.8353 33.936 24.5631 35.2359 23.905 36.6148C23.6983 36.9884 23.6983 36.9884 23.7218 37.3453C24.318 37.6223 24.9152 37.8973 25.5126 38.1719C25.6814 38.2504 25.8502 38.3288 26.0242 38.4096C26.1878 38.4846 26.3514 38.5596 26.52 38.6369C26.67 38.7062 26.8201 38.7754 26.9747 38.8468C28.6991 39.5337 30.4854 39.1161 32.2392 38.7669C36.0477 38.0145 39.6592 37.4611 43.2392 39.4132C43.8747 39.5764 44.1719 39.3198 44.7303 38.9986C47.6175 37.4556 50.9398 37.1813 54.0943 38.0791C54.7731 38.3025 55.4428 38.5505 56.1129 38.7985C56.2232 38.8392 56.3335 38.88 56.4471 38.922C57.0056 39.1291 57.5625 39.3393 58.1175 39.5557C59.6474 40.1444 61.0831 40.6627 62.6781 40.0522C63.5678 39.6394 64.4239 39.166 65.278 38.6847C65.2175 38.5228 65.157 38.3609 65.0947 38.1942C64.5126 36.5871 64.053 35.249 64.7962 33.6096C65.5708 32.0794 67.0026 31.638 68.5141 31.046C68.7127 30.9661 68.9113 30.8863 69.1159 30.804C72.9366 29.2795 72.9366 29.2795 74.6132 29.7792C75.951 30.3592 76.6219 31.4125 77.1804 32.7356C77.2842 33.0001 77.3859 33.2653 77.486 33.5312C77.5428 33.6775 77.5996 33.8239 77.6582 33.9747C77.8445 34.4558 78.0282 34.9378 78.2119 35.4199C78.3443 35.7631 78.4768 36.1063 78.6096 36.4494C78.8871 37.1676 79.1637 37.8862 79.4395 38.6051C79.8401 39.6488 80.2442 40.6911 80.6494 41.7329C80.7808 42.0708 80.9122 42.4087 81.0436 42.7465C81.1086 42.9137 81.1736 43.0808 81.2406 43.253C81.5704 44.1016 81.8993 44.9505 82.2282 45.7995C82.7928 47.2565 83.3585 48.7131 83.9248 50.1695C84.1426 50.7297 84.3603 51.2899 84.578 51.8501C84.7168 52.2072 84.8557 52.5642 84.9946 52.9212C85.1878 53.4176 85.3808 53.9141 85.5736 54.4107C85.6297 54.5545 85.6858 54.6984 85.7435 54.8466C86.0323 55.5907 86.3159 56.3366 86.5938 57.0848C86.6491 57.2335 86.7044 57.3821 86.7614 57.5353C87.1099 58.5955 87.0849 59.8315 86.6321 60.8577C85.7603 62.2327 84.4879 62.7573 83.0085 63.3168C82.8308 63.3865 82.6531 63.4562 82.4701 63.528C78.1878 65.1915 78.1878 65.1915 76.4839 64.46C75.1698 63.7925 74.7463 62.7591 74.1589 61.4542C74.06 61.4948 73.9611 61.5353 73.8592 61.5771C73.4114 61.7603 72.9631 61.9421 72.5147 62.1239C72.359 62.1878 72.2034 62.2516 72.0431 62.3175C71.8935 62.3779 71.7439 62.4383 71.5898 62.5006C71.452 62.5567 71.3143 62.6128 71.1723 62.6706C70.8076 62.7936 70.8076 62.7936 70.3049 62.7936C70.3127 62.9332 70.3205 63.0728 70.3285 63.2167C70.387 65.0392 70.0293 66.1752 68.7864 67.5161C68.1442 68.1098 67.4476 68.5447 66.6185 68.8208C66.6262 69.0088 66.634 69.1968 66.642 69.3904C66.7012 71.4024 66.5033 72.7037 65.0868 74.2248C63.8683 75.3528 62.5228 75.5747 60.9213 75.5177C60.9206 75.6641 60.9206 75.6641 60.9199 75.8133C60.8541 77.2073 60.384 78.4591 59.4681 79.528C58.1215 80.7501 56.6698 81.102 54.8889 81.0427C54.7783 80.9874 54.6677 80.9322 54.5538 80.8753C54.5676 81.0652 54.5814 81.2551 54.5957 81.4508C54.5886 82.7789 53.9169 83.8135 53.0326 84.7613C51.8694 85.8432 50.5591 86.3202 48.9704 86.2864C47.6738 86.1316 46.4789 85.4958 45.3377 84.8934C45.2971 84.9931 45.2565 85.0928 45.2146 85.1956C44.9618 85.6337 44.7131 85.8119 44.2904 86.0863C44.1651 86.1696 44.0398 86.2529 43.9108 86.3388C42.6412 87.0368 41.2228 87.1002 39.808 86.9025C38.445 86.4849 37.4221 85.7376 36.6243 84.5586C36.508 84.3377 36.3948 84.115 36.2892 83.8889C36.0991 83.9165 35.909 83.9441 35.7132 83.9726C34.0172 84.1751 32.4798 84.1118 31.0423 83.0832C30.3901 82.5542 29.7984 81.9683 29.419 81.2101C29.2527 81.2641 29.0863 81.318 28.915 81.3736C28.2546 81.561 27.6109 81.6094 26.9265 81.6077C26.809 81.6075 26.6915 81.6072 26.5705 81.6069C25.5915 81.5838 24.8824 81.3843 24.0569 80.8753C23.8806 80.782 23.7044 80.6888 23.5228 80.5927C22.4811 79.737 21.8004 78.5131 21.5434 77.192C21.508 76.6307 21.5117 76.079 21.5434 75.5177C21.4419 75.5154 21.3404 75.513 21.2358 75.5105C19.6756 75.4218 18.5222 74.9299 17.4485 73.7807C16.3918 72.4992 16.0438 71.1345 16.1813 69.4905C16.3258 68.6618 16.5906 67.9452 17.0453 67.2381C17.8031 66.0183 18.1463 65.1815 17.8426 63.7362C17.4772 62.1572 17.4772 62.1572 16.684 60.7845C16.1897 60.4957 15.6742 60.2782 15.1445 60.0625C14.9321 59.9723 14.9321 59.9723 14.7155 59.8804C14.3672 59.7329 14.0181 59.5879 13.6678 59.4451C13.6212 59.5951 13.5745 59.7451 13.5265 59.8996C13.1365 61.0066 12.5922 61.8812 11.5523 62.4692C10.1165 63.0555 8.81104 62.9368 7.39201 62.3469C7.06442 62.205 6.73924 62.0592 6.41509 61.9097C6.08511 61.7575 5.75318 61.6105 5.4205 61.4643C1.83595 59.872 1.83595 59.872 1.10045 58.1057C0.81871 56.6123 1.15755 55.4736 1.76875 54.1301C1.83646 53.9769 1.90417 53.8238 1.97394 53.666C2.11492 53.3476 2.25675 53.0296 2.39941 52.712C2.59493 52.2763 2.78792 51.8395 2.97971 51.4021C3.34949 50.5593 3.72246 49.7179 4.09568 48.8765C4.23392 48.5645 4.37214 48.2524 4.51034 47.9403C4.79591 47.2955 5.08158 46.6507 5.36731 46.006C5.90901 44.7835 6.44976 43.5606 6.9904 42.3376C7.25235 41.7451 7.51454 41.1526 7.77692 40.5603C8.39696 39.1601 9.0154 37.7592 9.62876 36.3561C9.91712 35.6967 10.2063 35.0376 10.4956 34.3786C10.6326 34.0656 10.7693 33.7525 10.9056 33.4392C12.8896 28.8772 12.8896 28.8772 14.5057 28.137C16.2458 27.5575 17.7215 28.242 19.2967 28.961ZM15.163 31.1486C14.7769 31.7528 14.4904 32.366 14.2098 33.0243C14.1218 33.2264 14.1218 33.2264 14.032 33.4325C13.8397 33.8747 13.6491 34.3177 13.4584 34.7607C13.2547 35.2299 13.0505 35.699 12.8463 36.1681C12.7075 36.4872 12.5688 36.8063 12.4303 37.1255C11.8437 38.4767 11.2469 39.8233 10.6461 41.1683C9.88654 42.8685 9.13083 44.5704 8.38234 46.2756C8.31811 46.4219 8.25388 46.5682 8.18771 46.719C7.86573 47.4527 7.54421 48.1867 7.22321 48.9209C6.64329 50.2458 6.05845 51.5677 5.45257 52.881C5.34907 53.1065 5.24558 53.332 5.14211 53.5576C4.95384 53.9676 4.76288 54.376 4.57011 54.784C3.95267 56.0613 3.95267 56.0613 3.94906 57.436C4.69812 58.1203 5.70625 58.4411 6.62843 58.8346C6.9539 58.9739 7.27817 59.1157 7.60244 59.2577C7.81041 59.3472 8.01845 59.4365 8.22656 59.5256C8.41447 59.6065 8.60238 59.6875 8.79598 59.7709C9.46315 60 9.46315 60 10.149 59.9474C10.6971 59.4038 10.9872 58.8056 11.2846 58.1005C11.3694 57.9018 11.4543 57.703 11.5417 57.4983C11.5859 57.393 11.6302 57.2876 11.6758 57.1791C11.9156 56.6089 12.1598 56.0407 12.4033 55.4721C12.4531 55.3553 12.503 55.2386 12.5543 55.1183C13.0337 53.9976 13.5322 52.8858 14.0344 51.775C15.0343 49.5579 16.014 47.3322 16.9885 45.1038C17.6912 43.4985 18.4024 41.8975 19.1242 40.3007C19.3559 39.7863 19.5875 39.2719 19.8192 38.7574C19.9691 38.4255 20.1197 38.0938 20.2709 37.7624C20.4822 37.2995 20.6913 36.8356 20.9 36.3715C20.9629 36.2354 21.0257 36.0993 21.0905 35.9591C21.4608 35.1287 21.6926 34.4095 21.711 33.4945C21.252 32.6943 19.9643 32.3908 19.1402 32.0245C18.801 31.8733 18.4632 31.7192 18.1253 31.5649C17.909 31.4678 17.6926 31.3709 17.476 31.2742C17.28 31.1862 17.084 31.0982 16.8821 31.0076C15.9528 30.6638 15.9528 30.6638 15.163 31.1486ZM70.7966 33.2401C70.4743 33.3683 70.1508 33.4933 69.8271 33.6181C69.6219 33.6991 69.4167 33.78 69.2053 33.8634C69.0184 33.937 68.8316 34.0107 68.6391 34.0866C68.0932 34.3476 67.6952 34.5498 67.2887 35.0013C67.2899 35.894 67.6167 36.6825 67.9472 37.5009C68.023 37.6932 68.023 37.6932 68.1004 37.8894C68.2105 38.1683 68.3212 38.447 68.4324 38.7254C68.6126 39.1768 68.7914 39.6288 68.9697 40.0809C69.1604 40.5643 69.3512 41.0477 69.5425 41.5309C70.2027 43.1994 70.852 44.8721 71.5 46.5453C71.6985 47.0575 71.8971 47.5696 72.0958 48.0816C72.7246 49.7023 73.3529 51.3232 73.9804 52.9444C74.2703 53.693 74.5603 54.4416 74.8503 55.1902C74.988 55.5457 75.1256 55.9012 75.2631 56.2568C75.6247 57.192 75.9879 58.1266 76.3543 59.0599C76.4901 59.4074 76.6237 59.7555 76.757 60.1039C76.828 60.2843 76.899 60.4646 76.9722 60.6504C77.0291 60.7976 77.0861 60.9447 77.1447 61.0963C77.3835 61.528 77.5748 61.7275 78.0129 61.9565C79.0292 61.8865 80.024 61.3688 80.9717 61.008C81.3121 60.8786 81.6531 60.7509 81.9942 60.6233C82.2108 60.5413 82.4274 60.4592 82.6439 60.3771C82.8404 60.3027 83.0369 60.2284 83.2393 60.1518C83.7221 59.9764 83.7221 59.9764 84.0453 59.6125C84.1644 58.5644 83.8452 57.7715 83.4608 56.82C83.3988 56.662 83.3368 56.504 83.273 56.3412C83.0679 55.8195 82.8601 55.2989 82.6524 54.7782C82.5071 54.4098 82.362 54.0412 82.2171 53.6726C81.9158 52.9066 81.6136 52.141 81.3108 51.3756C80.688 49.7995 80.0763 48.2191 79.4647 46.6387C79.2041 45.9658 78.9429 45.2931 78.6816 44.6205C78.1238 43.1842 77.5672 41.7476 77.0121 40.3103C76.7185 39.5502 76.4246 38.7904 76.1306 38.0305C75.9903 37.6676 75.8502 37.3046 75.7103 36.9415C75.5165 36.4387 75.3222 35.9362 75.1276 35.4336C75.0707 35.2854 75.0138 35.1372 74.9551 34.9846C74.473 33.6365 74.473 33.6365 73.6562 32.49C72.6379 32.368 71.722 32.871 70.7966 33.2401ZM40.7611 45.5983C39.9406 46.4372 39.0532 47.1661 38.1324 47.8929C37.8426 48.1371 37.5529 48.3812 37.2631 48.6254C35.6955 49.9082 33.991 51.0174 32.2676 52.0785C32.8209 53.2493 33.933 53.7954 35.0868 54.2949C38.1731 55.3745 41.5147 53.6897 44.3596 52.5958C47.5563 51.3688 50.4759 50.3736 53.8835 51.4088C54.6288 51.7408 55.3268 52.1375 56.0304 52.5494C56.2276 52.6621 56.425 52.7746 56.6224 52.8868C57.2197 53.2276 57.8139 53.5735 58.4078 53.9202C58.5833 54.0221 58.7588 54.1241 58.9397 54.2292C59.6038 54.6151 60.2675 55.0015 60.9298 55.3906C62.3314 56.213 63.7479 57.0073 65.1717 57.7909C68.2314 59.4852 68.2314 59.4852 68.9644 60.2822C69.9262 59.9788 70.8719 59.6397 71.813 59.2777C71.9254 59.236 72.0379 59.1943 72.1537 59.1514C72.4372 59.0405 72.7125 58.9092 72.986 58.7754C73.2314 58.0396 72.9011 57.5156 72.622 56.8278C72.5634 56.6797 72.5048 56.5316 72.4445 56.379C72.2494 55.8867 72.0521 55.3952 71.8549 54.9038C71.6488 54.3853 71.4432 53.8666 71.2376 53.3479C71.0939 52.9854 70.9501 52.623 70.806 52.2607C70.2787 50.9335 69.7597 49.6032 69.2452 48.2709C69.137 47.9909 69.137 47.9909 69.0266 47.7051C68.7442 46.9739 68.462 46.2425 68.1804 45.5109C67.9851 45.0037 67.7891 44.4968 67.5931 43.9899C67.5356 43.84 67.4781 43.6902 67.4189 43.5358C67.13 42.79 66.8241 42.0712 66.4509 41.3634C66.2788 41.4543 66.1066 41.5451 65.9292 41.6388C63.2886 43.0103 61.1699 43.6128 58.2402 42.7028C57.3107 42.3702 56.3918 42.0109 55.4758 41.6428C53.8224 40.9818 52.2665 40.429 50.4694 40.4531C50.3322 40.4545 50.195 40.4558 50.0536 40.4573C46.2861 40.5611 43.2748 43.0173 40.7611 45.5983ZM22.2137 40.024C22.0901 40.3038 22.0901 40.3038 21.964 40.5893C20.3486 44.2453 18.7316 47.9006 17.1052 51.5518C17.0058 51.7752 16.9065 51.9988 16.8074 52.2224C16.5335 52.8393 16.256 53.4543 15.9747 54.0679C15.9126 54.2045 15.8505 54.3412 15.7865 54.4819C15.6662 54.7463 15.545 55.0103 15.4226 55.2738C15.3414 55.4532 15.3414 55.4532 15.2585 55.6362C15.186 55.794 15.186 55.794 15.112 55.9551C14.9729 56.3156 14.9729 56.3156 15.0084 56.9338C15.0954 56.9717 15.1823 57.0097 15.272 57.0488C15.6696 57.2226 16.0668 57.3973 16.4641 57.5721C16.6009 57.6317 16.7378 57.6914 16.8788 57.7529C18.2064 58.3383 19.0509 58.7794 19.7002 60.1148C19.8973 60.6663 20.0597 61.2214 20.2029 61.789C20.3422 61.7185 20.4815 61.6479 20.6251 61.5752C20.8982 61.4376 20.8982 61.4376 21.1769 61.2972C21.3577 61.2059 21.5385 61.1147 21.7247 61.0206C22.9725 60.4181 24.5221 60.4176 25.8582 60.774C27.1438 61.283 28.246 62.3666 28.7959 63.6274C28.9545 64.0728 29.1039 64.5209 29.2514 64.9701C29.3892 64.9744 29.527 64.9787 29.669 64.9832C31.3869 65.0704 32.8803 65.3577 34.1108 66.6443C34.3502 67.0221 34.5641 67.4039 34.768 67.8019C34.9585 68.186 34.9585 68.186 35.2838 68.6534C35.7061 68.6685 36.0997 68.6587 36.5196 68.6325C38.0023 68.5914 39.2251 68.8403 40.3795 69.8404C41.0508 70.5526 41.5038 71.2446 41.8188 72.1693C41.9789 72.1615 42.1389 72.1537 42.3038 72.1457C44.396 72.0874 45.8863 72.4694 47.516 73.8435C48.0641 74.3014 48.6022 74.6729 49.2329 75.0076C49.3998 75.0969 49.5666 75.1862 49.7386 75.2782C49.9141 75.3711 50.0896 75.4639 50.2704 75.5596C52.3505 76.6673 52.3505 76.6673 53.1144 77.1239C53.2185 77.186 53.3227 77.2481 53.43 77.3121C53.694 77.4717 53.9564 77.6338 54.2186 77.7963C55.0113 78.1633 55.7483 78.3009 56.596 78.0186C57.3063 77.5297 57.7864 77.0306 58.0726 76.2083C58.0726 75.4852 57.9367 74.9693 57.57 74.3458C56.5956 73.4076 55.3127 72.8068 54.1349 72.1693C53.7324 71.9491 53.3304 71.728 52.9285 71.5068C52.827 71.451 52.7256 71.3952 52.621 71.3377C51.5633 70.7546 50.5177 70.1515 49.4745 69.5428C49.2259 69.3983 49.2259 69.3983 48.9724 69.2508C46.7434 67.9465 46.7434 67.9465 46.5106 67.4814C46.4468 66.8949 46.4432 66.5836 46.762 66.0793C47.3507 65.6969 47.8486 65.6832 48.5214 65.8072C49.1722 66.0942 49.7627 66.4661 50.3646 66.8431C50.7232 67.0602 51.0821 67.2766 51.4414 67.4925C51.624 67.6029 51.8067 67.7132 51.9949 67.8268C52.845 68.3298 53.7137 68.7958 54.5852 69.2603C56.0634 70.0514 57.5257 70.866 58.978 71.7037C59.1138 71.782 59.2497 71.8603 59.3896 71.941C59.5079 72.0096 59.6262 72.0781 59.7481 72.1488C60.6175 72.636 61.2573 72.8388 62.2618 72.6715C62.9864 72.3287 63.4717 71.9171 63.7699 71.1647C63.8869 70.4169 63.841 69.8156 63.529 69.1243C62.4413 67.9315 60.8661 67.2299 59.4655 66.4664C57.9545 65.6358 56.4507 64.7943 54.9622 63.9237C54.8069 63.8339 54.6515 63.7441 54.4915 63.6516C54.3494 63.5679 54.2073 63.4841 54.0609 63.3979C53.8751 63.289 53.8751 63.289 53.6855 63.178C53.3808 62.961 53.3808 62.961 53.0457 62.4587C52.9887 61.9231 53.0044 61.5586 53.2028 61.0566C53.6601 60.6965 54.0484 60.6994 54.6182 60.7113C55.4848 60.8561 56.178 61.3579 56.9102 61.8204C57.2648 62.0359 57.6198 62.2509 57.9751 62.4653C58.1564 62.5754 58.3377 62.6855 58.5245 62.799C59.4143 63.3286 60.3233 63.821 61.2354 64.3108C61.3975 64.3984 61.5595 64.486 61.7264 64.5762C62.1829 64.8215 62.6408 65.0639 63.0996 65.3049C63.2535 65.3866 63.4074 65.4682 63.566 65.5523C63.7881 65.6675 63.7881 65.6675 64.0147 65.785C64.2118 65.8879 64.2118 65.8879 64.4129 65.9928C64.9861 66.2289 65.3683 66.1641 65.9482 65.9746C66.6701 65.5862 67.1426 65.234 67.4563 64.4678C67.5716 63.4471 67.429 62.7892 66.786 61.9565C66.3916 61.6653 66.0407 61.4411 65.6131 61.2135C65.43 61.1109 65.43 61.1109 65.2431 61.0063C64.9653 60.8507 64.6868 60.6962 64.4078 60.5428C63.6015 60.0962 62.8037 59.6347 62.0042 59.176C61.5011 58.8879 60.9971 58.6012 60.4932 58.3144C59.6537 57.8365 58.8151 57.3572 57.9771 56.8769C57.6656 56.6985 57.3542 56.5202 57.0427 56.3418C56.7534 56.1761 56.4643 56.0101 56.1752 55.8441C55.6359 55.5355 55.0954 55.2292 54.5538 54.9247C54.4571 54.8702 54.3604 54.8158 54.2608 54.7597C53.968 54.5956 53.6741 54.4334 53.3802 54.2714C53.2075 54.1758 53.0348 54.0802 52.8568 53.9817C50.8862 53.0445 48.7094 53.8951 46.7928 54.5722C45.6427 54.9912 44.5087 55.4502 43.3725 55.905C40.1674 57.1674 36.7257 57.9032 33.4294 56.5564C31.5899 55.695 29.8469 54.4403 28.9163 52.5808C28.8518 51.7271 28.8936 51.2512 29.419 50.5717C29.8613 50.2436 30.3338 49.9755 30.8119 49.7032C33.9472 47.8525 36.7674 45.6098 39.323 43.0148C39.7978 42.5482 40.302 42.1241 40.8134 41.6983C40.6684 41.3162 40.6684 41.3162 40.206 41.1855C37.6061 40.464 34.9455 41.1222 32.3769 41.6721C29.1796 42.3465 26.6931 41.9841 23.7904 40.5345C23.6587 40.469 23.5269 40.4035 23.3912 40.336C23.2733 40.2761 23.1553 40.2161 23.0338 40.1544C22.6961 39.9922 22.6961 39.9922 22.2137 40.024ZM21.8862 64.3443C21.3312 65.0864 20.9263 65.903 20.4998 66.7236C20.3398 67.03 20.1767 67.3347 20.0134 67.6394C19.1292 69.2643 19.1292 69.2642 19.119 71.0627C19.5442 71.8782 19.9807 72.3821 20.8732 72.6715C21.5693 72.8007 22.0842 72.7422 22.7159 72.3974C23.2776 71.9558 23.5397 71.5682 23.8861 70.9463C23.943 70.8456 23.9998 70.7449 24.0585 70.6411C24.2382 70.3215 24.4146 70.0003 24.591 69.6789C24.7111 69.4644 24.8315 69.2501 24.952 69.036C26.1079 67.2023 26.1079 67.2023 26.4028 65.1375C26.0696 64.2439 25.5806 63.7222 24.7272 63.2958C23.4916 63.1452 22.7232 63.3762 21.8862 64.3443ZM28.4136 68.486C28.1171 68.903 28.1171 68.903 27.8716 69.3728C27.7283 69.6324 27.7283 69.6324 27.5821 69.8973C27.4832 70.0807 27.3844 70.2642 27.2825 70.4532C27.0751 70.8326 26.8676 71.2119 26.66 71.5911C26.5594 71.776 26.4588 71.9608 26.3551 72.1513C26.1058 72.6026 25.8495 73.0476 25.5853 73.4903C25.5153 73.6087 25.4454 73.727 25.3734 73.8489C25.248 74.0597 25.1209 74.2694 24.9914 74.4777C24.5477 75.2345 24.3656 75.9847 24.392 76.8571C24.6231 77.5412 24.9747 77.9478 25.5021 78.4372C26.2511 78.7836 26.9317 78.8669 27.7433 78.6988C28.8605 78.1854 29.2524 77.2456 29.796 76.1874C29.8893 76.0092 29.9827 75.8311 30.0789 75.6475C30.2702 75.2811 30.4603 74.9141 30.6494 74.5465C30.9092 74.0455 31.1765 73.5495 31.4468 73.0541C31.6019 72.7628 31.7569 72.4713 31.9115 72.1797C31.9844 72.0484 32.0572 71.9171 32.1323 71.7818C32.599 70.8786 32.7294 70.146 32.4352 69.1557C32.0698 68.5203 31.6086 68.0909 30.9271 67.8163C30.5221 67.7513 30.5221 67.7513 30.0997 67.7535C29.96 67.7487 29.8202 67.744 29.6762 67.7391C29.1012 67.8436 28.8451 68.0957 28.4136 68.486ZM34.8689 72.359C34.6096 72.8059 34.3683 73.2586 34.1318 73.7179C34.0453 73.8819 33.9588 74.0458 33.8698 74.2147C33.6953 74.5467 33.5221 74.8794 33.3501 75.2127C33.1297 75.6382 32.9046 76.0606 32.6773 76.4824C32.5545 76.7153 32.4318 76.9483 32.3095 77.1815C32.2534 77.285 32.1972 77.3886 32.1394 77.4952C31.7793 78.2008 31.6855 78.7492 31.7649 79.5359C32.051 80.2473 32.5088 80.6512 33.1578 81.0427C34.0976 81.2973 34.7362 81.2484 35.5938 80.7842C36.2506 80.2725 36.516 79.7689 36.8737 79.0317C36.9388 78.9029 37.0039 78.7742 37.071 78.6416C37.2772 78.2328 37.4797 77.8224 37.682 77.4117C37.8882 76.9997 38.095 76.588 38.302 76.1764C38.4303 75.9208 38.5579 75.6648 38.6847 75.4084C39.1201 74.5308 39.1201 74.5308 39.3053 74.3458C39.3158 73.3509 39.1389 72.5959 38.4675 71.8344C37.809 71.3858 37.2532 71.2733 36.4777 71.2491C35.7467 71.4196 35.289 71.7522 34.8689 72.359ZM41.9864 75.3503C41.2673 76.3993 40.6756 77.5245 40.0831 78.6485C39.9762 78.8501 39.8681 79.051 39.7589 79.2513C38.8777 80.8139 38.8777 80.8139 38.8026 82.5495C39.1749 83.2795 39.5408 83.7553 40.3107 84.0563C41.1242 84.1666 41.7754 84.1495 42.531 83.8156C43.6145 82.8069 44.2864 81.4074 44.9711 80.1114C45.0531 79.9617 45.1351 79.8121 45.2195 79.6579C45.8027 78.5561 46.1898 77.6553 45.8299 76.4072C45.4127 75.6945 44.9866 75.1756 44.1778 74.9095C43.3312 74.7554 42.7275 74.8892 41.9864 75.3503ZM48.8566 78.0291C48.8077 78.1508 48.7589 78.2725 48.7086 78.3979C48.2554 79.5088 47.7574 80.5732 47.1874 81.6293C46.9555 82.0571 46.9555 82.0571 47.1809 82.5495C47.9248 83.0863 48.723 83.4676 49.6525 83.4075C50.5405 83.2426 51.0568 82.7946 51.6004 82.0786C51.8412 81.2365 51.7799 80.5858 51.4957 79.7766C50.9494 78.9089 49.9153 78.4723 49.0241 78.0291C48.9688 78.0291 48.9135 78.0291 48.8566 78.0291Z"/>
</mask>
<path d="M19.2967 28.961C19.7236 29.152 20.1544 29.3305 20.5871 29.5078C20.885 29.6332 21.1828 29.7587 21.4806 29.8845C21.6195 29.9405 21.7583 29.9965 21.9014 30.0542C23.0746 30.5641 23.8528 31.2974 24.4608 32.4266C24.8353 33.936 24.5631 35.2359 23.905 36.6148C23.6983 36.9884 23.6983 36.9884 23.7218 37.3453C24.318 37.6223 24.9152 37.8973 25.5126 38.1719C25.6814 38.2504 25.8502 38.3288 26.0242 38.4096C26.1878 38.4846 26.3514 38.5596 26.52 38.6369C26.67 38.7062 26.8201 38.7754 26.9747 38.8468C28.6991 39.5337 30.4854 39.1161 32.2392 38.7669C36.0477 38.0145 39.6592 37.4611 43.2392 39.4132C43.8747 39.5764 44.1719 39.3198 44.7303 38.9986C47.6175 37.4556 50.9398 37.1813 54.0943 38.0791C54.7731 38.3025 55.4428 38.5505 56.1129 38.7985C56.2232 38.8392 56.3335 38.88 56.4471 38.922C57.0056 39.1291 57.5625 39.3393 58.1175 39.5557C59.6474 40.1444 61.0831 40.6627 62.6781 40.0522C63.5678 39.6394 64.4239 39.166 65.278 38.6847C65.2175 38.5228 65.157 38.3609 65.0947 38.1942C64.5126 36.5871 64.053 35.249 64.7962 33.6096C65.5708 32.0794 67.0026 31.638 68.5141 31.046C68.7127 30.9661 68.9113 30.8863 69.1159 30.804C72.9366 29.2795 72.9366 29.2795 74.6132 29.7792C75.951 30.3592 76.6219 31.4125 77.1804 32.7356C77.2842 33.0001 77.3859 33.2653 77.486 33.5312C77.5428 33.6775 77.5996 33.8239 77.6582 33.9747C77.8445 34.4558 78.0282 34.9378 78.2119 35.4199C78.3443 35.7631 78.4768 36.1063 78.6096 36.4494C78.8871 37.1676 79.1637 37.8862 79.4395 38.6051C79.8401 39.6488 80.2442 40.6911 80.6494 41.7329C80.7808 42.0708 80.9122 42.4087 81.0436 42.7465C81.1086 42.9137 81.1736 43.0808 81.2406 43.253C81.5704 44.1016 81.8993 44.9505 82.2282 45.7995C82.7928 47.2565 83.3585 48.7131 83.9248 50.1695C84.1426 50.7297 84.3603 51.2899 84.578 51.8501C84.7168 52.2072 84.8557 52.5642 84.9946 52.9212C85.1878 53.4176 85.3808 53.9141 85.5736 54.4107C85.6297 54.5545 85.6858 54.6984 85.7435 54.8466C86.0323 55.5907 86.3159 56.3366 86.5938 57.0848C86.6491 57.2335 86.7044 57.3821 86.7614 57.5353C87.1099 58.5955 87.0849 59.8315 86.6321 60.8577C85.7603 62.2327 84.4879 62.7573 83.0085 63.3168C82.8308 63.3865 82.6531 63.4562 82.4701 63.528C78.1878 65.1915 78.1878 65.1915 76.4839 64.46C75.1698 63.7925 74.7463 62.7591 74.1589 61.4542C74.06 61.4948 73.9611 61.5353 73.8592 61.5771C73.4114 61.7603 72.9631 61.9421 72.5147 62.1239C72.359 62.1878 72.2034 62.2516 72.0431 62.3175C71.8935 62.3779 71.7439 62.4383 71.5898 62.5006C71.452 62.5567 71.3143 62.6128 71.1723 62.6706C70.8076 62.7936 70.8076 62.7936 70.3049 62.7936C70.3127 62.9332 70.3205 63.0728 70.3285 63.2167C70.387 65.0392 70.0293 66.1752 68.7864 67.5161C68.1442 68.1098 67.4476 68.5447 66.6185 68.8208C66.6262 69.0088 66.634 69.1968 66.642 69.3904C66.7012 71.4024 66.5033 72.7037 65.0868 74.2248C63.8683 75.3528 62.5228 75.5747 60.9213 75.5177C60.9206 75.6641 60.9206 75.6641 60.9199 75.8133C60.8541 77.2073 60.384 78.4591 59.4681 79.528C58.1215 80.7501 56.6698 81.102 54.8889 81.0427C54.7783 80.9874 54.6677 80.9322 54.5538 80.8753C54.5676 81.0652 54.5814 81.2551 54.5957 81.4508C54.5886 82.7789 53.9169 83.8135 53.0326 84.7613C51.8694 85.8432 50.5591 86.3202 48.9704 86.2864C47.6738 86.1316 46.4789 85.4958 45.3377 84.8934C45.2971 84.9931 45.2565 85.0928 45.2146 85.1956C44.9618 85.6337 44.7131 85.8119 44.2904 86.0863C44.1651 86.1696 44.0398 86.2529 43.9108 86.3388C42.6412 87.0368 41.2228 87.1002 39.808 86.9025C38.445 86.4849 37.4221 85.7376 36.6243 84.5586C36.508 84.3377 36.3948 84.115 36.2892 83.8889C36.0991 83.9165 35.909 83.9441 35.7132 83.9726C34.0172 84.1751 32.4798 84.1118 31.0423 83.0832C30.3901 82.5542 29.7984 81.9683 29.419 81.2101C29.2527 81.2641 29.0863 81.318 28.915 81.3736C28.2546 81.561 27.6109 81.6094 26.9265 81.6077C26.809 81.6075 26.6915 81.6072 26.5705 81.6069C25.5915 81.5838 24.8824 81.3843 24.0569 80.8753C23.8806 80.782 23.7044 80.6888 23.5228 80.5927C22.4811 79.737 21.8004 78.5131 21.5434 77.192C21.508 76.6307 21.5117 76.079 21.5434 75.5177C21.4419 75.5154 21.3404 75.513 21.2358 75.5105C19.6756 75.4218 18.5222 74.9299 17.4485 73.7807C16.3918 72.4992 16.0438 71.1345 16.1813 69.4905C16.3258 68.6618 16.5906 67.9452 17.0453 67.2381C17.8031 66.0183 18.1463 65.1815 17.8426 63.7362C17.4772 62.1572 17.4772 62.1572 16.684 60.7845C16.1897 60.4957 15.6742 60.2782 15.1445 60.0625C14.9321 59.9723 14.9321 59.9723 14.7155 59.8804C14.3672 59.7329 14.0181 59.5879 13.6678 59.4451C13.6212 59.5951 13.5745 59.7451 13.5265 59.8996C13.1365 61.0066 12.5922 61.8812 11.5523 62.4692C10.1165 63.0555 8.81104 62.9368 7.39201 62.3469C7.06442 62.205 6.73924 62.0592 6.41509 61.9097C6.08511 61.7575 5.75318 61.6105 5.4205 61.4643C1.83595 59.872 1.83595 59.872 1.10045 58.1057C0.81871 56.6123 1.15755 55.4736 1.76875 54.1301C1.83646 53.9769 1.90417 53.8238 1.97394 53.666C2.11492 53.3476 2.25675 53.0296 2.39941 52.712C2.59493 52.2763 2.78792 51.8395 2.97971 51.4021C3.34949 50.5593 3.72246 49.7179 4.09568 48.8765C4.23392 48.5645 4.37214 48.2524 4.51034 47.9403C4.79591 47.2955 5.08158 46.6507 5.36731 46.006C5.90901 44.7835 6.44976 43.5606 6.9904 42.3376C7.25235 41.7451 7.51454 41.1526 7.77692 40.5603C8.39696 39.1601 9.0154 37.7592 9.62876 36.3561C9.91712 35.6967 10.2063 35.0376 10.4956 34.3786C10.6326 34.0656 10.7693 33.7525 10.9056 33.4392C12.8896 28.8772 12.8896 28.8772 14.5057 28.137C16.2458 27.5575 17.7215 28.242 19.2967 28.961ZM15.163 31.1486C14.7769 31.7528 14.4904 32.366 14.2098 33.0243C14.1218 33.2264 14.1218 33.2264 14.032 33.4325C13.8397 33.8747 13.6491 34.3177 13.4584 34.7607C13.2547 35.2299 13.0505 35.699 12.8463 36.1681C12.7075 36.4872 12.5688 36.8063 12.4303 37.1255C11.8437 38.4767 11.2469 39.8233 10.6461 41.1683C9.88654 42.8685 9.13083 44.5704 8.38234 46.2756C8.31811 46.4219 8.25388 46.5682 8.18771 46.719C7.86573 47.4527 7.54421 48.1867 7.22321 48.9209C6.64329 50.2458 6.05845 51.5677 5.45257 52.881C5.34907 53.1065 5.24558 53.332 5.14211 53.5576C4.95384 53.9676 4.76288 54.376 4.57011 54.784C3.95267 56.0613 3.95267 56.0613 3.94906 57.436C4.69812 58.1203 5.70625 58.4411 6.62843 58.8346C6.9539 58.9739 7.27817 59.1157 7.60244 59.2577C7.81041 59.3472 8.01845 59.4365 8.22656 59.5256C8.41447 59.6065 8.60238 59.6875 8.79598 59.7709C9.46315 60 9.46315 60 10.149 59.9474C10.6971 59.4038 10.9872 58.8056 11.2846 58.1005C11.3694 57.9018 11.4543 57.703 11.5417 57.4983C11.5859 57.393 11.6302 57.2876 11.6758 57.1791C11.9156 56.6089 12.1598 56.0407 12.4033 55.4721C12.4531 55.3553 12.503 55.2386 12.5543 55.1183C13.0337 53.9976 13.5322 52.8858 14.0344 51.775C15.0343 49.5579 16.014 47.3322 16.9885 45.1038C17.6912 43.4985 18.4024 41.8975 19.1242 40.3007C19.3559 39.7863 19.5875 39.2719 19.8192 38.7574C19.9691 38.4255 20.1197 38.0938 20.2709 37.7624C20.4822 37.2995 20.6913 36.8356 20.9 36.3715C20.9629 36.2354 21.0257 36.0993 21.0905 35.9591C21.4608 35.1287 21.6926 34.4095 21.711 33.4945C21.252 32.6943 19.9643 32.3908 19.1402 32.0245C18.801 31.8733 18.4632 31.7192 18.1253 31.5649C17.909 31.4678 17.6926 31.3709 17.476 31.2742C17.28 31.1862 17.084 31.0982 16.8821 31.0076C15.9528 30.6638 15.9528 30.6638 15.163 31.1486ZM70.7966 33.2401C70.4743 33.3683 70.1508 33.4933 69.8271 33.6181C69.6219 33.6991 69.4167 33.78 69.2053 33.8634C69.0184 33.937 68.8316 34.0107 68.6391 34.0866C68.0932 34.3476 67.6952 34.5498 67.2887 35.0013C67.2899 35.894 67.6167 36.6825 67.9472 37.5009C68.023 37.6932 68.023 37.6932 68.1004 37.8894C68.2105 38.1683 68.3212 38.447 68.4324 38.7254C68.6126 39.1768 68.7914 39.6288 68.9697 40.0809C69.1604 40.5643 69.3512 41.0477 69.5425 41.5309C70.2027 43.1994 70.852 44.8721 71.5 46.5453C71.6985 47.0575 71.8971 47.5696 72.0958 48.0816C72.7246 49.7023 73.3529 51.3232 73.9804 52.9444C74.2703 53.693 74.5603 54.4416 74.8503 55.1902C74.988 55.5457 75.1256 55.9012 75.2631 56.2568C75.6247 57.192 75.9879 58.1266 76.3543 59.0599C76.4901 59.4074 76.6237 59.7555 76.757 60.1039C76.828 60.2843 76.899 60.4646 76.9722 60.6504C77.0291 60.7976 77.0861 60.9447 77.1447 61.0963C77.3835 61.528 77.5748 61.7275 78.0129 61.9565C79.0292 61.8865 80.024 61.3688 80.9717 61.008C81.3121 60.8786 81.6531 60.7509 81.9942 60.6233C82.2108 60.5413 82.4274 60.4592 82.6439 60.3771C82.8404 60.3027 83.0369 60.2284 83.2393 60.1518C83.7221 59.9764 83.7221 59.9764 84.0453 59.6125C84.1644 58.5644 83.8452 57.7715 83.4608 56.82C83.3988 56.662 83.3368 56.504 83.273 56.3412C83.0679 55.8195 82.8601 55.2989 82.6524 54.7782C82.5071 54.4098 82.362 54.0412 82.2171 53.6726C81.9158 52.9066 81.6136 52.141 81.3108 51.3756C80.688 49.7995 80.0763 48.2191 79.4647 46.6387C79.2041 45.9658 78.9429 45.2931 78.6816 44.6205C78.1238 43.1842 77.5672 41.7476 77.0121 40.3103C76.7185 39.5502 76.4246 38.7904 76.1306 38.0305C75.9903 37.6676 75.8502 37.3046 75.7103 36.9415C75.5165 36.4387 75.3222 35.9362 75.1276 35.4336C75.0707 35.2854 75.0138 35.1372 74.9551 34.9846C74.473 33.6365 74.473 33.6365 73.6562 32.49C72.6379 32.368 71.722 32.871 70.7966 33.2401ZM40.7611 45.5983C39.9406 46.4372 39.0532 47.1661 38.1324 47.8929C37.8426 48.1371 37.5529 48.3812 37.2631 48.6254C35.6955 49.9082 33.991 51.0174 32.2676 52.0785C32.8209 53.2493 33.933 53.7954 35.0868 54.2949C38.1731 55.3745 41.5147 53.6897 44.3596 52.5958C47.5563 51.3688 50.4759 50.3736 53.8835 51.4088C54.6288 51.7408 55.3268 52.1375 56.0304 52.5494C56.2276 52.6621 56.425 52.7746 56.6224 52.8868C57.2197 53.2276 57.8139 53.5735 58.4078 53.9202C58.5833 54.0221 58.7588 54.1241 58.9397 54.2292C59.6038 54.6151 60.2675 55.0015 60.9298 55.3906C62.3314 56.213 63.7479 57.0073 65.1717 57.7909C68.2314 59.4852 68.2314 59.4852 68.9644 60.2822C69.9262 59.9788 70.8719 59.6397 71.813 59.2777C71.9254 59.236 72.0379 59.1943 72.1537 59.1514C72.4372 59.0405 72.7125 58.9092 72.986 58.7754C73.2314 58.0396 72.9011 57.5156 72.622 56.8278C72.5634 56.6797 72.5048 56.5316 72.4445 56.379C72.2494 55.8867 72.0521 55.3952 71.8549 54.9038C71.6488 54.3853 71.4432 53.8666 71.2376 53.3479C71.0939 52.9854 70.9501 52.623 70.806 52.2607C70.2787 50.9335 69.7597 49.6032 69.2452 48.2709C69.137 47.9909 69.137 47.9909 69.0266 47.7051C68.7442 46.9739 68.462 46.2425 68.1804 45.5109C67.9851 45.0037 67.7891 44.4968 67.5931 43.9899C67.5356 43.84 67.4781 43.6902 67.4189 43.5358C67.13 42.79 66.8241 42.0712 66.4509 41.3634C66.2788 41.4543 66.1066 41.5451 65.9292 41.6388C63.2886 43.0103 61.1699 43.6128 58.2402 42.7028C57.3107 42.3702 56.3918 42.0109 55.4758 41.6428C53.8224 40.9818 52.2665 40.429 50.4694 40.4531C50.3322 40.4545 50.195 40.4558 50.0536 40.4573C46.2861 40.5611 43.2748 43.0173 40.7611 45.5983ZM22.2137 40.024C22.0901 40.3038 22.0901 40.3038 21.964 40.5893C20.3486 44.2453 18.7316 47.9006 17.1052 51.5518C17.0058 51.7752 16.9065 51.9988 16.8074 52.2224C16.5335 52.8393 16.256 53.4543 15.9747 54.0679C15.9126 54.2045 15.8505 54.3412 15.7865 54.4819C15.6662 54.7463 15.545 55.0103 15.4226 55.2738C15.3414 55.4532 15.3414 55.4532 15.2585 55.6362C15.186 55.794 15.186 55.794 15.112 55.9551C14.9729 56.3156 14.9729 56.3156 15.0084 56.9338C15.0954 56.9717 15.1823 57.0097 15.272 57.0488C15.6696 57.2226 16.0668 57.3973 16.4641 57.5721C16.6009 57.6317 16.7378 57.6914 16.8788 57.7529C18.2064 58.3383 19.0509 58.7794 19.7002 60.1148C19.8973 60.6663 20.0597 61.2214 20.2029 61.789C20.3422 61.7185 20.4815 61.6479 20.6251 61.5752C20.8982 61.4376 20.8982 61.4376 21.1769 61.2972C21.3577 61.2059 21.5385 61.1147 21.7247 61.0206C22.9725 60.4181 24.5221 60.4176 25.8582 60.774C27.1438 61.283 28.246 62.3666 28.7959 63.6274C28.9545 64.0728 29.1039 64.5209 29.2514 64.9701C29.3892 64.9744 29.527 64.9787 29.669 64.9832C31.3869 65.0704 32.8803 65.3577 34.1108 66.6443C34.3502 67.0221 34.5641 67.4039 34.768 67.8019C34.9585 68.186 34.9585 68.186 35.2838 68.6534C35.7061 68.6685 36.0997 68.6587 36.5196 68.6325C38.0023 68.5914 39.2251 68.8403 40.3795 69.8404C41.0508 70.5526 41.5038 71.2446 41.8188 72.1693C41.9789 72.1615 42.1389 72.1537 42.3038 72.1457C44.396 72.0874 45.8863 72.4694 47.516 73.8435C48.0641 74.3014 48.6022 74.6729 49.2329 75.0076C49.3998 75.0969 49.5666 75.1862 49.7386 75.2782C49.9141 75.3711 50.0896 75.4639 50.2704 75.5596C52.3505 76.6673 52.3505 76.6673 53.1144 77.1239C53.2185 77.186 53.3227 77.2481 53.43 77.3121C53.694 77.4717 53.9564 77.6338 54.2186 77.7963C55.0113 78.1633 55.7483 78.3009 56.596 78.0186C57.3063 77.5297 57.7864 77.0306 58.0726 76.2083C58.0726 75.4852 57.9367 74.9693 57.57 74.3458C56.5956 73.4076 55.3127 72.8068 54.1349 72.1693C53.7324 71.9491 53.3304 71.728 52.9285 71.5068C52.827 71.451 52.7256 71.3952 52.621 71.3377C51.5633 70.7546 50.5177 70.1515 49.4745 69.5428C49.2259 69.3983 49.2259 69.3983 48.9724 69.2508C46.7434 67.9465 46.7434 67.9465 46.5106 67.4814C46.4468 66.8949 46.4432 66.5836 46.762 66.0793C47.3507 65.6969 47.8486 65.6832 48.5214 65.8072C49.1722 66.0942 49.7627 66.4661 50.3646 66.8431C50.7232 67.0602 51.0821 67.2766 51.4414 67.4925C51.624 67.6029 51.8067 67.7132 51.9949 67.8268C52.845 68.3298 53.7137 68.7958 54.5852 69.2603C56.0634 70.0514 57.5257 70.866 58.978 71.7037C59.1138 71.782 59.2497 71.8603 59.3896 71.941C59.5079 72.0096 59.6262 72.0781 59.7481 72.1488C60.6175 72.636 61.2573 72.8388 62.2618 72.6715C62.9864 72.3287 63.4717 71.9171 63.7699 71.1647C63.8869 70.4169 63.841 69.8156 63.529 69.1243C62.4413 67.9315 60.8661 67.2299 59.4655 66.4664C57.9545 65.6358 56.4507 64.7943 54.9622 63.9237C54.8069 63.8339 54.6515 63.7441 54.4915 63.6516C54.3494 63.5679 54.2073 63.4841 54.0609 63.3979C53.8751 63.289 53.8751 63.289 53.6855 63.178C53.3808 62.961 53.3808 62.961 53.0457 62.4587C52.9887 61.9231 53.0044 61.5586 53.2028 61.0566C53.6601 60.6965 54.0484 60.6994 54.6182 60.7113C55.4848 60.8561 56.178 61.3579 56.9102 61.8204C57.2648 62.0359 57.6198 62.2509 57.9751 62.4653C58.1564 62.5754 58.3377 62.6855 58.5245 62.799C59.4143 63.3286 60.3233 63.821 61.2354 64.3108C61.3975 64.3984 61.5595 64.486 61.7264 64.5762C62.1829 64.8215 62.6408 65.0639 63.0996 65.3049C63.2535 65.3866 63.4074 65.4682 63.566 65.5523C63.7881 65.6675 63.7881 65.6675 64.0147 65.785C64.2118 65.8879 64.2118 65.8879 64.4129 65.9928C64.9861 66.2289 65.3683 66.1641 65.9482 65.9746C66.6701 65.5862 67.1426 65.234 67.4563 64.4678C67.5716 63.4471 67.429 62.7892 66.786 61.9565C66.3916 61.6653 66.0407 61.4411 65.6131 61.2135C65.43 61.1109 65.43 61.1109 65.2431 61.0063C64.9653 60.8507 64.6868 60.6962 64.4078 60.5428C63.6015 60.0962 62.8037 59.6347 62.0042 59.176C61.5011 58.8879 60.9971 58.6012 60.4932 58.3144C59.6537 57.8365 58.8151 57.3572 57.9771 56.8769C57.6656 56.6985 57.3542 56.5202 57.0427 56.3418C56.7534 56.1761 56.4643 56.0101 56.1752 55.8441C55.6359 55.5355 55.0954 55.2292 54.5538 54.9247C54.4571 54.8702 54.3604 54.8158 54.2608 54.7597C53.968 54.5956 53.6741 54.4334 53.3802 54.2714C53.2075 54.1758 53.0348 54.0802 52.8568 53.9817C50.8862 53.0445 48.7094 53.8951 46.7928 54.5722C45.6427 54.9912 44.5087 55.4502 43.3725 55.905C40.1674 57.1674 36.7257 57.9032 33.4294 56.5564C31.5899 55.695 29.8469 54.4403 28.9163 52.5808C28.8518 51.7271 28.8936 51.2512 29.419 50.5717C29.8613 50.2436 30.3338 49.9755 30.8119 49.7032C33.9472 47.8525 36.7674 45.6098 39.323 43.0148C39.7978 42.5482 40.302 42.1241 40.8134 41.6983C40.6684 41.3162 40.6684 41.3162 40.206 41.1855C37.6061 40.464 34.9455 41.1222 32.3769 41.6721C29.1796 42.3465 26.6931 41.9841 23.7904 40.5345C23.6587 40.469 23.5269 40.4035 23.3912 40.336C23.2733 40.2761 23.1553 40.2161 23.0338 40.1544C22.6961 39.9922 22.6961 39.9922 22.2137 40.024ZM21.8862 64.3443C21.3312 65.0864 20.9263 65.903 20.4998 66.7236C20.3398 67.03 20.1767 67.3347 20.0134 67.6394C19.1292 69.2643 19.1292 69.2642 19.119 71.0627C19.5442 71.8782 19.9807 72.3821 20.8732 72.6715C21.5693 72.8007 22.0842 72.7422 22.7159 72.3974C23.2776 71.9558 23.5397 71.5682 23.8861 70.9463C23.943 70.8456 23.9998 70.7449 24.0585 70.6411C24.2382 70.3215 24.4146 70.0003 24.591 69.6789C24.7111 69.4644 24.8315 69.2501 24.952 69.036C26.1079 67.2023 26.1079 67.2023 26.4028 65.1375C26.0696 64.2439 25.5806 63.7222 24.7272 63.2958C23.4916 63.1452 22.7232 63.3762 21.8862 64.3443ZM28.4136 68.486C28.1171 68.903 28.1171 68.903 27.8716 69.3728C27.7283 69.6324 27.7283 69.6324 27.5821 69.8973C27.4832 70.0807 27.3844 70.2642 27.2825 70.4532C27.0751 70.8326 26.8676 71.2119 26.66 71.5911C26.5594 71.776 26.4588 71.9608 26.3551 72.1513C26.1058 72.6026 25.8495 73.0476 25.5853 73.4903C25.5153 73.6087 25.4454 73.727 25.3734 73.8489C25.248 74.0597 25.1209 74.2694 24.9914 74.4777C24.5477 75.2345 24.3656 75.9847 24.392 76.8571C24.6231 77.5412 24.9747 77.9478 25.5021 78.4372C26.2511 78.7836 26.9317 78.8669 27.7433 78.6988C28.8605 78.1854 29.2524 77.2456 29.796 76.1874C29.8893 76.0092 29.9827 75.8311 30.0789 75.6475C30.2702 75.2811 30.4603 74.9141 30.6494 74.5465C30.9092 74.0455 31.1765 73.5495 31.4468 73.0541C31.6019 72.7628 31.7569 72.4713 31.9115 72.1797C31.9844 72.0484 32.0572 71.9171 32.1323 71.7818C32.599 70.8786 32.7294 70.146 32.4352 69.1557C32.0698 68.5203 31.6086 68.0909 30.9271 67.8163C30.5221 67.7513 30.5221 67.7513 30.0997 67.7535C29.96 67.7487 29.8202 67.744 29.6762 67.7391C29.1012 67.8436 28.8451 68.0957 28.4136 68.486ZM34.8689 72.359C34.6096 72.8059 34.3683 73.2586 34.1318 73.7179C34.0453 73.8819 33.9588 74.0458 33.8698 74.2147C33.6953 74.5467 33.5221 74.8794 33.3501 75.2127C33.1297 75.6382 32.9046 76.0606 32.6773 76.4824C32.5545 76.7153 32.4318 76.9483 32.3095 77.1815C32.2534 77.285 32.1972 77.3886 32.1394 77.4952C31.7793 78.2008 31.6855 78.7492 31.7649 79.5359C32.051 80.2473 32.5088 80.6512 33.1578 81.0427C34.0976 81.2973 34.7362 81.2484 35.5938 80.7842C36.2506 80.2725 36.516 79.7689 36.8737 79.0317C36.9388 78.9029 37.0039 78.7742 37.071 78.6416C37.2772 78.2328 37.4797 77.8224 37.682 77.4117C37.8882 76.9997 38.095 76.588 38.302 76.1764C38.4303 75.9208 38.5579 75.6648 38.6847 75.4084C39.1201 74.5308 39.1201 74.5308 39.3053 74.3458C39.3158 73.3509 39.1389 72.5959 38.4675 71.8344C37.809 71.3858 37.2532 71.2733 36.4777 71.2491C35.7467 71.4196 35.289 71.7522 34.8689 72.359ZM41.9864 75.3503C41.2673 76.3993 40.6756 77.5245 40.0831 78.6485C39.9762 78.8501 39.8681 79.051 39.7589 79.2513C38.8777 80.8139 38.8777 80.8139 38.8026 82.5495C39.1749 83.2795 39.5408 83.7553 40.3107 84.0563C41.1242 84.1666 41.7754 84.1495 42.531 83.8156C43.6145 82.8069 44.2864 81.4074 44.9711 80.1114C45.0531 79.9617 45.1351 79.8121 45.2195 79.6579C45.8027 78.5561 46.1898 77.6553 45.8299 76.4072C45.4127 75.6945 44.9866 75.1756 44.1778 74.9095C43.3312 74.7554 42.7275 74.8892 41.9864 75.3503ZM48.8566 78.0291C48.8077 78.1508 48.7589 78.2725 48.7086 78.3979C48.2554 79.5088 47.7574 80.5732 47.1874 81.6293C46.9555 82.0571 46.9555 82.0571 47.1809 82.5495C47.9248 83.0863 48.723 83.4676 49.6525 83.4075C50.5405 83.2426 51.0568 82.7946 51.6004 82.0786C51.8412 81.2365 51.7799 80.5858 51.4957 79.7766C50.9494 78.9089 49.9153 78.4723 49.0241 78.0291C48.9688 78.0291 48.9135 78.0291 48.8566 78.0291Z" fill="#665FEE"/>
<path d="M19.2967 28.961C19.7236 29.152 20.1544 29.3305 20.5871 29.5078C20.885 29.6332 21.1828 29.7587 21.4806 29.8845C21.6195 29.9405 21.7583 29.9965 21.9014 30.0542C23.0746 30.5641 23.8528 31.2974 24.4608 32.4266C24.8353 33.936 24.5631 35.2359 23.905 36.6148C23.6983 36.9884 23.6983 36.9884 23.7218 37.3453C24.318 37.6223 24.9152 37.8973 25.5126 38.1719C25.6814 38.2504 25.8502 38.3288 26.0242 38.4096C26.1878 38.4846 26.3514 38.5596 26.52 38.6369C26.67 38.7062 26.8201 38.7754 26.9747 38.8468C28.6991 39.5337 30.4854 39.1161 32.2392 38.7669C36.0477 38.0145 39.6592 37.4611 43.2392 39.4132C43.8747 39.5764 44.1719 39.3198 44.7303 38.9986C47.6175 37.4556 50.9398 37.1813 54.0943 38.0791C54.7731 38.3025 55.4428 38.5505 56.1129 38.7985C56.2232 38.8392 56.3335 38.88 56.4471 38.922C57.0056 39.1291 57.5625 39.3393 58.1175 39.5557C59.6474 40.1444 61.0831 40.6627 62.6781 40.0522C63.5678 39.6394 64.4239 39.166 65.278 38.6847C65.2175 38.5228 65.157 38.3609 65.0947 38.1942C64.5126 36.5871 64.053 35.249 64.7962 33.6096C65.5708 32.0794 67.0026 31.638 68.5141 31.046C68.7127 30.9661 68.9113 30.8863 69.1159 30.804C72.9366 29.2795 72.9366 29.2795 74.6132 29.7792C75.951 30.3592 76.6219 31.4125 77.1804 32.7356C77.2842 33.0001 77.3859 33.2653 77.486 33.5312C77.5428 33.6775 77.5996 33.8239 77.6582 33.9747C77.8445 34.4558 78.0282 34.9378 78.2119 35.4199C78.3443 35.7631 78.4768 36.1063 78.6096 36.4494C78.8871 37.1676 79.1637 37.8862 79.4395 38.6051C79.8401 39.6488 80.2442 40.6911 80.6494 41.7329C80.7808 42.0708 80.9122 42.4087 81.0436 42.7465C81.1086 42.9137 81.1736 43.0808 81.2406 43.253C81.5704 44.1016 81.8993 44.9505 82.2282 45.7995C82.7928 47.2565 83.3585 48.7131 83.9248 50.1695C84.1426 50.7297 84.3603 51.2899 84.578 51.8501C84.7168 52.2072 84.8557 52.5642 84.9946 52.9212C85.1878 53.4176 85.3808 53.9141 85.5736 54.4107C85.6297 54.5545 85.6858 54.6984 85.7435 54.8466C86.0323 55.5907 86.3159 56.3366 86.5938 57.0848C86.6491 57.2335 86.7044 57.3821 86.7614 57.5353C87.1099 58.5955 87.0849 59.8315 86.6321 60.8577C85.7603 62.2327 84.4879 62.7573 83.0085 63.3168C82.8308 63.3865 82.6531 63.4562 82.4701 63.528C78.1878 65.1915 78.1878 65.1915 76.4839 64.46C75.1698 63.7925 74.7463 62.7591 74.1589 61.4542C74.06 61.4948 73.9611 61.5353 73.8592 61.5771C73.4114 61.7603 72.9631 61.9421 72.5147 62.1239C72.359 62.1878 72.2034 62.2516 72.0431 62.3175C71.8935 62.3779 71.7439 62.4383 71.5898 62.5006C71.452 62.5567 71.3143 62.6128 71.1723 62.6706C70.8076 62.7936 70.8076 62.7936 70.3049 62.7936C70.3127 62.9332 70.3205 63.0728 70.3285 63.2167C70.387 65.0392 70.0293 66.1752 68.7864 67.5161C68.1442 68.1098 67.4476 68.5447 66.6185 68.8208C66.6262 69.0088 66.634 69.1968 66.642 69.3904C66.7012 71.4024 66.5033 72.7037 65.0868 74.2248C63.8683 75.3528 62.5228 75.5747 60.9213 75.5177C60.9206 75.6641 60.9206 75.6641 60.9199 75.8133C60.8541 77.2073 60.384 78.4591 59.4681 79.528C58.1215 80.7501 56.6698 81.102 54.8889 81.0427C54.7783 80.9874 54.6677 80.9322 54.5538 80.8753C54.5676 81.0652 54.5814 81.2551 54.5957 81.4508C54.5886 82.7789 53.9169 83.8135 53.0326 84.7613C51.8694 85.8432 50.5591 86.3202 48.9704 86.2864C47.6738 86.1316 46.4789 85.4958 45.3377 84.8934C45.2971 84.9931 45.2565 85.0928 45.2146 85.1956C44.9618 85.6337 44.7131 85.8119 44.2904 86.0863C44.1651 86.1696 44.0398 86.2529 43.9108 86.3388C42.6412 87.0368 41.2228 87.1002 39.808 86.9025C38.445 86.4849 37.4221 85.7376 36.6243 84.5586C36.508 84.3377 36.3948 84.115 36.2892 83.8889C36.0991 83.9165 35.909 83.9441 35.7132 83.9726C34.0172 84.1751 32.4798 84.1118 31.0423 83.0832C30.3901 82.5542 29.7984 81.9683 29.419 81.2101C29.2527 81.2641 29.0863 81.318 28.915 81.3736C28.2546 81.561 27.6109 81.6094 26.9265 81.6077C26.809 81.6075 26.6915 81.6072 26.5705 81.6069C25.5915 81.5838 24.8824 81.3843 24.0569 80.8753C23.8806 80.782 23.7044 80.6888 23.5228 80.5927C22.4811 79.737 21.8004 78.5131 21.5434 77.192C21.508 76.6307 21.5117 76.079 21.5434 75.5177C21.4419 75.5154 21.3404 75.513 21.2358 75.5105C19.6756 75.4218 18.5222 74.9299 17.4485 73.7807C16.3918 72.4992 16.0438 71.1345 16.1813 69.4905C16.3258 68.6618 16.5906 67.9452 17.0453 67.2381C17.8031 66.0183 18.1463 65.1815 17.8426 63.7362C17.4772 62.1572 17.4772 62.1572 16.684 60.7845C16.1897 60.4957 15.6742 60.2782 15.1445 60.0625C14.9321 59.9723 14.9321 59.9723 14.7155 59.8804C14.3672 59.7329 14.0181 59.5879 13.6678 59.4451C13.6212 59.5951 13.5745 59.7451 13.5265 59.8996C13.1365 61.0066 12.5922 61.8812 11.5523 62.4692C10.1165 63.0555 8.81104 62.9368 7.39201 62.3469C7.06442 62.205 6.73924 62.0592 6.41509 61.9097C6.08511 61.7575 5.75318 61.6105 5.4205 61.4643C1.83595 59.872 1.83595 59.872 1.10045 58.1057C0.81871 56.6123 1.15755 55.4736 1.76875 54.1301C1.83646 53.9769 1.90417 53.8238 1.97394 53.666C2.11492 53.3476 2.25675 53.0296 2.39941 52.712C2.59493 52.2763 2.78792 51.8395 2.97971 51.4021C3.34949 50.5593 3.72246 49.7179 4.09568 48.8765C4.23392 48.5645 4.37214 48.2524 4.51034 47.9403C4.79591 47.2955 5.08158 46.6507 5.36731 46.006C5.90901 44.7835 6.44976 43.5606 6.9904 42.3376C7.25235 41.7451 7.51454 41.1526 7.77692 40.5603C8.39696 39.1601 9.0154 37.7592 9.62876 36.3561C9.91712 35.6967 10.2063 35.0376 10.4956 34.3786C10.6326 34.0656 10.7693 33.7525 10.9056 33.4392C12.8896 28.8772 12.8896 28.8772 14.5057 28.137C16.2458 27.5575 17.7215 28.242 19.2967 28.961ZM15.163 31.1486C14.7769 31.7528 14.4904 32.366 14.2098 33.0243C14.1218 33.2264 14.1218 33.2264 14.032 33.4325C13.8397 33.8747 13.6491 34.3177 13.4584 34.7607C13.2547 35.2299 13.0505 35.699 12.8463 36.1681C12.7075 36.4872 12.5688 36.8063 12.4303 37.1255C11.8437 38.4767 11.2469 39.8233 10.6461 41.1683C9.88654 42.8685 9.13083 44.5704 8.38234 46.2756C8.31811 46.4219 8.25388 46.5682 8.18771 46.719C7.86573 47.4527 7.54421 48.1867 7.22321 48.9209C6.64329 50.2458 6.05845 51.5677 5.45257 52.881C5.34907 53.1065 5.24558 53.332 5.14211 53.5576C4.95384 53.9676 4.76288 54.376 4.57011 54.784C3.95267 56.0613 3.95267 56.0613 3.94906 57.436C4.69812 58.1203 5.70625 58.4411 6.62843 58.8346C6.9539 58.9739 7.27817 59.1157 7.60244 59.2577C7.81041 59.3472 8.01845 59.4365 8.22656 59.5256C8.41447 59.6065 8.60238 59.6875 8.79598 59.7709C9.46315 60 9.46315 60 10.149 59.9474C10.6971 59.4038 10.9872 58.8056 11.2846 58.1005C11.3694 57.9018 11.4543 57.703 11.5417 57.4983C11.5859 57.393 11.6302 57.2876 11.6758 57.1791C11.9156 56.6089 12.1598 56.0407 12.4033 55.4721C12.4531 55.3553 12.503 55.2386 12.5543 55.1183C13.0337 53.9976 13.5322 52.8858 14.0344 51.775C15.0343 49.5579 16.014 47.3322 16.9885 45.1038C17.6912 43.4985 18.4024 41.8975 19.1242 40.3007C19.3559 39.7863 19.5875 39.2719 19.8192 38.7574C19.9691 38.4255 20.1197 38.0938 20.2709 37.7624C20.4822 37.2995 20.6913 36.8356 20.9 36.3715C20.9629 36.2354 21.0257 36.0993 21.0905 35.9591C21.4608 35.1287 21.6926 34.4095 21.711 33.4945C21.252 32.6943 19.9643 32.3908 19.1402 32.0245C18.801 31.8733 18.4632 31.7192 18.1253 31.5649C17.909 31.4678 17.6926 31.3709 17.476 31.2742C17.28 31.1862 17.084 31.0982 16.8821 31.0076C15.9528 30.6638 15.9528 30.6638 15.163 31.1486ZM70.7966 33.2401C70.4743 33.3683 70.1508 33.4933 69.8271 33.6181C69.6219 33.6991 69.4167 33.78 69.2053 33.8634C69.0184 33.937 68.8316 34.0107 68.6391 34.0866C68.0932 34.3476 67.6952 34.5498 67.2887 35.0013C67.2899 35.894 67.6167 36.6825 67.9472 37.5009C68.023 37.6932 68.023 37.6932 68.1004 37.8894C68.2105 38.1683 68.3212 38.447 68.4324 38.7254C68.6126 39.1768 68.7914 39.6288 68.9697 40.0809C69.1604 40.5643 69.3512 41.0477 69.5425 41.5309C70.2027 43.1994 70.852 44.8721 71.5 46.5453C71.6985 47.0575 71.8971 47.5696 72.0958 48.0816C72.7246 49.7023 73.3529 51.3232 73.9804 52.9444C74.2703 53.693 74.5603 54.4416 74.8503 55.1902C74.988 55.5457 75.1256 55.9012 75.2631 56.2568C75.6247 57.192 75.9879 58.1266 76.3543 59.0599C76.4901 59.4074 76.6237 59.7555 76.757 60.1039C76.828 60.2843 76.899 60.4646 76.9722 60.6504C77.0291 60.7976 77.0861 60.9447 77.1447 61.0963C77.3835 61.528 77.5748 61.7275 78.0129 61.9565C79.0292 61.8865 80.024 61.3688 80.9717 61.008C81.3121 60.8786 81.6531 60.7509 81.9942 60.6233C82.2108 60.5413 82.4274 60.4592 82.6439 60.3771C82.8404 60.3027 83.0369 60.2284 83.2393 60.1518C83.7221 59.9764 83.7221 59.9764 84.0453 59.6125C84.1644 58.5644 83.8452 57.7715 83.4608 56.82C83.3988 56.662 83.3368 56.504 83.273 56.3412C83.0679 55.8195 82.8601 55.2989 82.6524 54.7782C82.5071 54.4098 82.362 54.0412 82.2171 53.6726C81.9158 52.9066 81.6136 52.141 81.3108 51.3756C80.688 49.7995 80.0763 48.2191 79.4647 46.6387C79.2041 45.9658 78.9429 45.2931 78.6816 44.6205C78.1238 43.1842 77.5672 41.7476 77.0121 40.3103C76.7185 39.5502 76.4246 38.7904 76.1306 38.0305C75.9903 37.6676 75.8502 37.3046 75.7103 36.9415C75.5165 36.4387 75.3222 35.9362 75.1276 35.4336C75.0707 35.2854 75.0138 35.1372 74.9551 34.9846C74.473 33.6365 74.473 33.6365 73.6562 32.49C72.6379 32.368 71.722 32.871 70.7966 33.2401ZM40.7611 45.5983C39.9406 46.4372 39.0532 47.1661 38.1324 47.8929C37.8426 48.1371 37.5529 48.3812 37.2631 48.6254C35.6955 49.9082 33.991 51.0174 32.2676 52.0785C32.8209 53.2493 33.933 53.7954 35.0868 54.2949C38.1731 55.3745 41.5147 53.6897 44.3596 52.5958C47.5563 51.3688 50.4759 50.3736 53.8835 51.4088C54.6288 51.7408 55.3268 52.1375 56.0304 52.5494C56.2276 52.6621 56.425 52.7746 56.6224 52.8868C57.2197 53.2276 57.8139 53.5735 58.4078 53.9202C58.5833 54.0221 58.7588 54.1241 58.9397 54.2292C59.6038 54.6151 60.2675 55.0015 60.9298 55.3906C62.3314 56.213 63.7479 57.0073 65.1717 57.7909C68.2314 59.4852 68.2314 59.4852 68.9644 60.2822C69.9262 59.9788 70.8719 59.6397 71.813 59.2777C71.9254 59.236 72.0379 59.1943 72.1537 59.1514C72.4372 59.0405 72.7125 58.9092 72.986 58.7754C73.2314 58.0396 72.9011 57.5156 72.622 56.8278C72.5634 56.6797 72.5048 56.5316 72.4445 56.379C72.2494 55.8867 72.0521 55.3952 71.8549 54.9038C71.6488 54.3853 71.4432 53.8666 71.2376 53.3479C71.0939 52.9854 70.9501 52.623 70.806 52.2607C70.2787 50.9335 69.7597 49.6032 69.2452 48.2709C69.137 47.9909 69.137 47.9909 69.0266 47.7051C68.7442 46.9739 68.462 46.2425 68.1804 45.5109C67.9851 45.0037 67.7891 44.4968 67.5931 43.9899C67.5356 43.84 67.4781 43.6902 67.4189 43.5358C67.13 42.79 66.8241 42.0712 66.4509 41.3634C66.2788 41.4543 66.1066 41.5451 65.9292 41.6388C63.2886 43.0103 61.1699 43.6128 58.2402 42.7028C57.3107 42.3702 56.3918 42.0109 55.4758 41.6428C53.8224 40.9818 52.2665 40.429 50.4694 40.4531C50.3322 40.4545 50.195 40.4558 50.0536 40.4573C46.2861 40.5611 43.2748 43.0173 40.7611 45.5983ZM22.2137 40.024C22.0901 40.3038 22.0901 40.3038 21.964 40.5893C20.3486 44.2453 18.7316 47.9006 17.1052 51.5518C17.0058 51.7752 16.9065 51.9988 16.8074 52.2224C16.5335 52.8393 16.256 53.4543 15.9747 54.0679C15.9126 54.2045 15.8505 54.3412 15.7865 54.4819C15.6662 54.7463 15.545 55.0103 15.4226 55.2738C15.3414 55.4532 15.3414 55.4532 15.2585 55.6362C15.186 55.794 15.186 55.794 15.112 55.9551C14.9729 56.3156 14.9729 56.3156 15.0084 56.9338C15.0954 56.9717 15.1823 57.0097 15.272 57.0488C15.6696 57.2226 16.0668 57.3973 16.4641 57.5721C16.6009 57.6317 16.7378 57.6914 16.8788 57.7529C18.2064 58.3383 19.0509 58.7794 19.7002 60.1148C19.8973 60.6663 20.0597 61.2214 20.2029 61.789C20.3422 61.7185 20.4815 61.6479 20.6251 61.5752C20.8982 61.4376 20.8982 61.4376 21.1769 61.2972C21.3577 61.2059 21.5385 61.1147 21.7247 61.0206C22.9725 60.4181 24.5221 60.4176 25.8582 60.774C27.1438 61.283 28.246 62.3666 28.7959 63.6274C28.9545 64.0728 29.1039 64.5209 29.2514 64.9701C29.3892 64.9744 29.527 64.9787 29.669 64.9832C31.3869 65.0704 32.8803 65.3577 34.1108 66.6443C34.3502 67.0221 34.5641 67.4039 34.768 67.8019C34.9585 68.186 34.9585 68.186 35.2838 68.6534C35.7061 68.6685 36.0997 68.6587 36.5196 68.6325C38.0023 68.5914 39.2251 68.8403 40.3795 69.8404C41.0508 70.5526 41.5038 71.2446 41.8188 72.1693C41.9789 72.1615 42.1389 72.1537 42.3038 72.1457C44.396 72.0874 45.8863 72.4694 47.516 73.8435C48.0641 74.3014 48.6022 74.6729 49.2329 75.0076C49.3998 75.0969 49.5666 75.1862 49.7386 75.2782C49.9141 75.3711 50.0896 75.4639 50.2704 75.5596C52.3505 76.6673 52.3505 76.6673 53.1144 77.1239C53.2185 77.186 53.3227 77.2481 53.43 77.3121C53.694 77.4717 53.9564 77.6338 54.2186 77.7963C55.0113 78.1633 55.7483 78.3009 56.596 78.0186C57.3063 77.5297 57.7864 77.0306 58.0726 76.2083C58.0726 75.4852 57.9367 74.9693 57.57 74.3458C56.5956 73.4076 55.3127 72.8068 54.1349 72.1693C53.7324 71.9491 53.3304 71.728 52.9285 71.5068C52.827 71.451 52.7256 71.3952 52.621 71.3377C51.5633 70.7546 50.5177 70.1515 49.4745 69.5428C49.2259 69.3983 49.2259 69.3983 48.9724 69.2508C46.7434 67.9465 46.7434 67.9465 46.5106 67.4814C46.4468 66.8949 46.4432 66.5836 46.762 66.0793C47.3507 65.6969 47.8486 65.6832 48.5214 65.8072C49.1722 66.0942 49.7627 66.4661 50.3646 66.8431C50.7232 67.0602 51.0821 67.2766 51.4414 67.4925C51.624 67.6029 51.8067 67.7132 51.9949 67.8268C52.845 68.3298 53.7137 68.7958 54.5852 69.2603C56.0634 70.0514 57.5257 70.866 58.978 71.7037C59.1138 71.782 59.2497 71.8603 59.3896 71.941C59.5079 72.0096 59.6262 72.0781 59.7481 72.1488C60.6175 72.636 61.2573 72.8388 62.2618 72.6715C62.9864 72.3287 63.4717 71.9171 63.7699 71.1647C63.8869 70.4169 63.841 69.8156 63.529 69.1243C62.4413 67.9315 60.8661 67.2299 59.4655 66.4664C57.9545 65.6358 56.4507 64.7943 54.9622 63.9237C54.8069 63.8339 54.6515 63.7441 54.4915 63.6516C54.3494 63.5679 54.2073 63.4841 54.0609 63.3979C53.8751 63.289 53.8751 63.289 53.6855 63.178C53.3808 62.961 53.3808 62.961 53.0457 62.4587C52.9887 61.9231 53.0044 61.5586 53.2028 61.0566C53.6601 60.6965 54.0484 60.6994 54.6182 60.7113C55.4848 60.8561 56.178 61.3579 56.9102 61.8204C57.2648 62.0359 57.6198 62.2509 57.9751 62.4653C58.1564 62.5754 58.3377 62.6855 58.5245 62.799C59.4143 63.3286 60.3233 63.821 61.2354 64.3108C61.3975 64.3984 61.5595 64.486 61.7264 64.5762C62.1829 64.8215 62.6408 65.0639 63.0996 65.3049C63.2535 65.3866 63.4074 65.4682 63.566 65.5523C63.7881 65.6675 63.7881 65.6675 64.0147 65.785C64.2118 65.8879 64.2118 65.8879 64.4129 65.9928C64.9861 66.2289 65.3683 66.1641 65.9482 65.9746C66.6701 65.5862 67.1426 65.234 67.4563 64.4678C67.5716 63.4471 67.429 62.7892 66.786 61.9565C66.3916 61.6653 66.0407 61.4411 65.6131 61.2135C65.43 61.1109 65.43 61.1109 65.2431 61.0063C64.9653 60.8507 64.6868 60.6962 64.4078 60.5428C63.6015 60.0962 62.8037 59.6347 62.0042 59.176C61.5011 58.8879 60.9971 58.6012 60.4932 58.3144C59.6537 57.8365 58.8151 57.3572 57.9771 56.8769C57.6656 56.6985 57.3542 56.5202 57.0427 56.3418C56.7534 56.1761 56.4643 56.0101 56.1752 55.8441C55.6359 55.5355 55.0954 55.2292 54.5538 54.9247C54.4571 54.8702 54.3604 54.8158 54.2608 54.7597C53.968 54.5956 53.6741 54.4334 53.3802 54.2714C53.2075 54.1758 53.0348 54.0802 52.8568 53.9817C50.8862 53.0445 48.7094 53.8951 46.7928 54.5722C45.6427 54.9912 44.5087 55.4502 43.3725 55.905C40.1674 57.1674 36.7257 57.9032 33.4294 56.5564C31.5899 55.695 29.8469 54.4403 28.9163 52.5808C28.8518 51.7271 28.8936 51.2512 29.419 50.5717C29.8613 50.2436 30.3338 49.9755 30.8119 49.7032C33.9472 47.8525 36.7674 45.6098 39.323 43.0148C39.7978 42.5482 40.302 42.1241 40.8134 41.6983C40.6684 41.3162 40.6684 41.3162 40.206 41.1855C37.6061 40.464 34.9455 41.1222 32.3769 41.6721C29.1796 42.3465 26.6931 41.9841 23.7904 40.5345C23.6587 40.469 23.5269 40.4035 23.3912 40.336C23.2733 40.2761 23.1553 40.2161 23.0338 40.1544C22.6961 39.9922 22.6961 39.9922 22.2137 40.024ZM21.8862 64.3443C21.3312 65.0864 20.9263 65.903 20.4998 66.7236C20.3398 67.03 20.1767 67.3347 20.0134 67.6394C19.1292 69.2643 19.1292 69.2642 19.119 71.0627C19.5442 71.8782 19.9807 72.3821 20.8732 72.6715C21.5693 72.8007 22.0842 72.7422 22.7159 72.3974C23.2776 71.9558 23.5397 71.5682 23.8861 70.9463C23.943 70.8456 23.9998 70.7449 24.0585 70.6411C24.2382 70.3215 24.4146 70.0003 24.591 69.6789C24.7111 69.4644 24.8315 69.2501 24.952 69.036C26.1079 67.2023 26.1079 67.2023 26.4028 65.1375C26.0696 64.2439 25.5806 63.7222 24.7272 63.2958C23.4916 63.1452 22.7232 63.3762 21.8862 64.3443ZM28.4136 68.486C28.1171 68.903 28.1171 68.903 27.8716 69.3728C27.7283 69.6324 27.7283 69.6324 27.5821 69.8973C27.4832 70.0807 27.3844 70.2642 27.2825 70.4532C27.0751 70.8326 26.8676 71.2119 26.66 71.5911C26.5594 71.776 26.4588 71.9608 26.3551 72.1513C26.1058 72.6026 25.8495 73.0476 25.5853 73.4903C25.5153 73.6087 25.4454 73.727 25.3734 73.8489C25.248 74.0597 25.1209 74.2694 24.9914 74.4777C24.5477 75.2345 24.3656 75.9847 24.392 76.8571C24.6231 77.5412 24.9747 77.9478 25.5021 78.4372C26.2511 78.7836 26.9317 78.8669 27.7433 78.6988C28.8605 78.1854 29.2524 77.2456 29.796 76.1874C29.8893 76.0092 29.9827 75.8311 30.0789 75.6475C30.2702 75.2811 30.4603 74.9141 30.6494 74.5465C30.9092 74.0455 31.1765 73.5495 31.4468 73.0541C31.6019 72.7628 31.7569 72.4713 31.9115 72.1797C31.9844 72.0484 32.0572 71.9171 32.1323 71.7818C32.599 70.8786 32.7294 70.146 32.4352 69.1557C32.0698 68.5203 31.6086 68.0909 30.9271 67.8163C30.5221 67.7513 30.5221 67.7513 30.0997 67.7535C29.96 67.7487 29.8202 67.744 29.6762 67.7391C29.1012 67.8436 28.8451 68.0957 28.4136 68.486ZM34.8689 72.359C34.6096 72.8059 34.3683 73.2586 34.1318 73.7179C34.0453 73.8819 33.9588 74.0458 33.8698 74.2147C33.6953 74.5467 33.5221 74.8794 33.3501 75.2127C33.1297 75.6382 32.9046 76.0606 32.6773 76.4824C32.5545 76.7153 32.4318 76.9483 32.3095 77.1815C32.2534 77.285 32.1972 77.3886 32.1394 77.4952C31.7793 78.2008 31.6855 78.7492 31.7649 79.5359C32.051 80.2473 32.5088 80.6512 33.1578 81.0427C34.0976 81.2973 34.7362 81.2484 35.5938 80.7842C36.2506 80.2725 36.516 79.7689 36.8737 79.0317C36.9388 78.9029 37.0039 78.7742 37.071 78.6416C37.2772 78.2328 37.4797 77.8224 37.682 77.4117C37.8882 76.9997 38.095 76.588 38.302 76.1764C38.4303 75.9208 38.5579 75.6648 38.6847 75.4084C39.1201 74.5308 39.1201 74.5308 39.3053 74.3458C39.3158 73.3509 39.1389 72.5959 38.4675 71.8344C37.809 71.3858 37.2532 71.2733 36.4777 71.2491C35.7467 71.4196 35.289 71.7522 34.8689 72.359ZM41.9864 75.3503C41.2673 76.3993 40.6756 77.5245 40.0831 78.6485C39.9762 78.8501 39.8681 79.051 39.7589 79.2513C38.8777 80.8139 38.8777 80.8139 38.8026 82.5495C39.1749 83.2795 39.5408 83.7553 40.3107 84.0563C41.1242 84.1666 41.7754 84.1495 42.531 83.8156C43.6145 82.8069 44.2864 81.4074 44.9711 80.1114C45.0531 79.9617 45.1351 79.8121 45.2195 79.6579C45.8027 78.5561 46.1898 77.6553 45.8299 76.4072C45.4127 75.6945 44.9866 75.1756 44.1778 74.9095C43.3312 74.7554 42.7275 74.8892 41.9864 75.3503ZM48.8566 78.0291C48.8077 78.1508 48.7589 78.2725 48.7086 78.3979C48.2554 79.5088 47.7574 80.5732 47.1874 81.6293C46.9555 82.0571 46.9555 82.0571 47.1809 82.5495C47.9248 83.0863 48.723 83.4676 49.6525 83.4075C50.5405 83.2426 51.0568 82.7946 51.6004 82.0786C51.8412 81.2365 51.7799 80.5858 51.4957 79.7766C50.9494 78.9089 49.9153 78.4723 49.0241 78.0291C48.9688 78.0291 48.9135 78.0291 48.8566 78.0291Z" stroke="#665FEE" stroke-width="2" mask="url(#path-1-outside-1_686_304)"/>
<path d="M47.5204 1.39209L47.5205 1.39191L47.5074 1.38763L46.9627 1.20949C46.9626 1.20944 46.9624 1.20938 46.9622 1.20932C43.1039 -0.0635685 38.1268 0.411401 34.5553 2.35565L34.5478 2.35976L34.5404 2.36411L34.1541 2.59192C34.1538 2.5921 34.1535 2.59228 34.1532 2.59246C32.6315 3.48111 31.1522 4.50715 29.9146 5.83203L29.8957 5.85226L29.8791 5.87444L29.4867 6.40065C26.912 9.59955 25.3809 13.4072 25.5073 17.5961L25.5075 17.6038L25.508 17.6115L25.5287 17.9519C25.5288 17.9524 25.5288 17.9528 25.5288 17.9533C25.5434 18.2187 25.5613 18.4836 25.5818 18.7478L25.5825 18.7569L25.5836 18.7659C26.0237 22.617 27.6903 26.7719 30.8165 29.3699L30.8239 29.3761L30.8315 29.382L31.243 29.6979C32.6397 30.8879 34.0765 31.7721 35.7485 32.5184L35.7561 32.5218L35.7637 32.5249C39.8261 34.1791 44.4894 34.1744 48.5674 32.5614L48.5774 32.5575L48.5872 32.5531C52.9285 30.6172 56.164 27.2383 57.869 22.805L57.869 22.805L57.8716 22.798C59.3411 18.7998 59.0921 14.1659 57.338 10.3089L57.3381 10.3089L57.3341 10.3004C55.3119 6.06549 51.973 2.98544 47.5204 1.39209ZM33.5594 7.75566L33.5595 7.75568L33.5626 7.75289C38.5411 3.39416 45.6189 3.30418 50.6924 7.61285C53.1232 9.91916 54.7716 12.9041 54.9038 16.2331C54.969 19.924 54.0592 23.2066 51.5075 25.9249C48.7448 28.5977 45.5337 29.9482 41.7158 29.9862C38.5108 29.8255 35.2584 28.4401 33.0513 26.1138C30.6858 23.4465 29.267 20.3302 29.3886 16.7637C29.567 13.5299 30.8403 10.2505 33.2167 8.05067L33.5594 7.75566Z" fill="#665FEE" stroke="#665FEE"/>
<mask id="path-3-inside-2_686_304" fill="white">
<path d="M37.4648 8.00526C37.5047 8.00496 37.5447 8.00467 37.5859 8.00436C37.6518 8.00468 37.6518 8.00468 37.719 8.005C37.7889 8.00472 37.7889 8.00472 37.8603 8.00443C37.9899 8.00392 38.1195 8.00407 38.2491 8.00433C38.3888 8.0045 38.5286 8.00406 38.6683 8.0037C38.942 8.00309 39.2158 8.00307 39.4896 8.00325C39.712 8.00339 39.9345 8.00334 40.157 8.00315C40.2044 8.00311 40.2044 8.00311 40.2529 8.00307C40.3171 8.00302 40.3814 8.00297 40.4457 8.00291C41.0487 8.00243 41.6516 8.00262 42.2546 8.00302C42.8065 8.00337 43.3584 8.00292 43.9103 8.00208C44.4767 8.00122 45.0431 8.00089 45.6095 8.00112C45.9276 8.00124 46.2457 8.00116 46.5638 8.00055C46.8346 8.00004 47.1054 8.00001 47.3762 8.00062C47.5144 8.00092 47.6526 8.00099 47.7908 8.00046C47.9405 7.99989 48.0902 8.0004 48.2399 8.00102C48.2837 8.00068 48.3275 8.00035 48.3727 8C48.6666 8.00252 48.6666 8.00252 48.8113 8.08549C48.92 8.20668 48.9592 8.29349 48.9602 8.45333C48.9605 8.48353 48.9609 8.51373 48.9612 8.54484C48.9612 8.59339 48.9612 8.59339 48.9611 8.64291C48.9613 8.67646 48.9614 8.71001 48.9616 8.74457C48.9618 8.81549 48.9618 8.8864 48.9617 8.95732C48.9616 9.06552 48.9624 9.17369 48.9633 9.28189C48.9634 9.35088 48.9635 9.41986 48.9634 9.48885C48.9637 9.52107 48.9641 9.5533 48.9644 9.5865C48.9631 9.76537 48.9562 9.90401 48.8406 10.0524C48.6452 10.1521 48.4902 10.1724 48.2713 10.1695C48.241 10.1695 48.2107 10.1695 48.1795 10.1695C48.0801 10.1695 47.9808 10.1686 47.8814 10.1678C47.8122 10.1676 47.743 10.1675 47.6738 10.1674C47.4923 10.167 47.3107 10.1659 47.1292 10.1648C46.9437 10.1637 46.7582 10.1632 46.5728 10.1627C46.2093 10.1616 45.8458 10.1598 45.4823 10.1575C45.5074 10.1958 45.5326 10.234 45.5585 10.2734C45.5918 10.3242 45.6251 10.3751 45.6584 10.4259C45.6749 10.451 45.6915 10.4761 45.7085 10.502C45.9938 10.9383 46.1574 11.4127 46.2854 11.9108C46.3141 11.911 46.3429 11.9112 46.3726 11.9114C46.6443 11.9134 46.9161 11.916 47.1878 11.9191C47.3275 11.9206 47.4672 11.922 47.6069 11.9229C47.7419 11.9239 47.8768 11.9253 48.0117 11.927C48.063 11.9276 48.1144 11.928 48.1658 11.9282C48.238 11.9286 48.3101 11.9296 48.3823 11.9307C48.4233 11.9311 48.4643 11.9315 48.5066 11.9319C48.6703 11.9518 48.7954 12.0031 48.9068 12.1212C49.004 12.2785 48.9932 12.4355 48.9941 12.6126C48.9943 12.6438 48.9945 12.675 48.9947 12.7071C48.995 12.7731 48.9953 12.8392 48.9954 12.9052C48.9958 13.0057 48.9969 13.1062 48.9981 13.2067C48.9983 13.2709 48.9985 13.3352 48.9986 13.3994C48.9991 13.4293 48.9995 13.4591 49 13.4899C48.9992 13.703 48.9729 13.8877 48.8087 14.0454C48.6542 14.1239 48.4954 14.1242 48.3235 14.1239C48.2789 14.1239 48.2343 14.1239 48.1884 14.1238C48.1407 14.1237 48.0929 14.1235 48.0437 14.1233C47.994 14.1232 47.9444 14.1232 47.8947 14.1231C47.7644 14.123 47.6341 14.1227 47.5038 14.1223C47.3707 14.1219 47.2376 14.1218 47.1045 14.1216C46.8436 14.1212 46.5827 14.1206 46.3219 14.1199C46.3149 14.1574 46.3079 14.1949 46.3006 14.2336C46.2911 14.2838 46.2815 14.3341 46.272 14.3844C46.2651 14.4213 46.2651 14.4213 46.2581 14.4589C46.0308 15.6454 45.2451 16.7009 44.2291 17.3896C43.3296 17.9799 42.1006 18.4924 40.9923 18.4679C41.1569 18.6514 41.3257 18.8308 41.4963 19.009C41.6306 19.1493 41.7635 19.2906 41.8959 19.4325C41.9529 19.4932 42.0102 19.5536 42.0679 19.6138C42.2185 19.7712 42.3652 19.9298 42.5049 20.0962C42.6225 20.2363 42.7447 20.37 42.8722 20.5017C43.0288 20.6633 43.1754 20.8305 43.3196 21.0026C43.4048 21.1015 43.4935 21.1962 43.5841 21.2906C43.7307 21.4438 43.8686 21.6016 44.0046 21.7635C44.1115 21.8884 44.2217 22.0103 44.3324 22.1322C44.4966 22.3131 44.657 22.4962 44.8142 22.6828C44.9118 22.7968 45.0121 22.9082 45.1127 23.0198C45.2765 23.2018 45.4329 23.3882 45.5863 23.5784C45.7247 23.7489 45.8699 23.9132 46.0172 24.0767C46.1834 24.2613 46.3443 24.4498 46.5044 24.6393C46.5599 24.7044 46.6154 24.7694 46.6709 24.8344C46.6977 24.866 46.7245 24.8977 46.7521 24.9303C46.8064 24.994 46.8615 25.0572 46.9172 25.1198C46.9436 25.15 46.97 25.1802 46.9972 25.2113C47.0209 25.2379 47.0446 25.2646 47.0691 25.292C47.1361 25.3924 47.1526 25.4676 47.1615 25.5861C47.1023 25.769 47.0377 25.8693 46.8694 25.9718C46.7685 25.9857 46.6821 25.9917 46.5813 25.991C46.5386 25.9916 46.5386 25.9916 46.4951 25.9921C46.4013 25.9931 46.3076 25.993 46.2138 25.9929C46.1484 25.9932 46.0829 25.9935 46.0175 25.9938C45.8805 25.9943 45.7434 25.9943 45.6064 25.9939C45.4311 25.9935 45.2559 25.9947 45.0807 25.9963C44.9456 25.9974 44.8105 25.9974 44.6754 25.9972C44.6108 25.9972 44.5462 25.9976 44.4816 25.9983C43.9136 26.0038 43.9136 26.0038 43.7483 25.8705C43.7182 25.8345 43.6881 25.7985 43.6571 25.7614C43.6302 25.7325 43.6033 25.7035 43.5757 25.6737C43.5521 25.6448 43.5285 25.6159 43.5042 25.5861C43.3757 25.4313 43.2442 25.28 43.1095 25.1302C42.9525 24.9553 42.799 24.7781 42.6475 24.5988C42.5292 24.4609 42.4077 24.3258 42.2863 24.1905C42.173 24.0641 42.062 23.9362 41.9528 23.8065C41.8232 23.6531 41.6875 23.5065 41.549 23.3606C41.4351 23.2375 41.3282 23.1094 41.2204 22.9814C41.1148 22.8588 41.0034 22.7417 40.8918 22.6241C40.8075 22.533 40.7274 22.4396 40.6478 22.3448C40.5067 22.1772 40.3578 22.0185 40.2059 21.86C40.1201 21.7682 40.0391 21.674 39.9588 21.5777C39.7897 21.3764 39.607 21.1889 39.4229 21.0004C39.3189 20.8938 39.218 20.7849 39.1186 20.6743C39.0445 20.5925 38.9689 20.512 38.8933 20.4315C38.7951 20.327 38.6975 20.2221 38.6013 20.116C38.3689 19.8602 38.1309 19.6099 37.8894 19.3621C37.0094 18.458 37.0094 18.458 37.008 18.1576C37.0078 18.123 37.0076 18.0885 37.0073 18.0529C37.0073 18.0157 37.0073 17.9784 37.0072 17.94C37.0071 17.9017 37.007 17.8633 37.0068 17.8238C37.0067 17.7426 37.0066 17.6615 37.0066 17.5803C37.0065 17.4562 37.0058 17.332 37.0051 17.2079C37.005 17.1291 37.005 17.0502 37.0049 16.9714C37.0047 16.9342 37.0044 16.8971 37.0041 16.8589C37.0042 16.8241 37.0044 16.7894 37.0045 16.7536C37.0044 16.7231 37.0044 16.6927 37.0043 16.6613C37.0201 16.5094 37.0704 16.4168 37.1741 16.3019C37.3384 16.1803 37.5283 16.1996 37.7272 16.2014C37.7685 16.2011 37.8099 16.2007 37.8525 16.2003C37.985 16.1993 38.1174 16.1994 38.2499 16.1997C38.4225 16.1992 38.595 16.1983 38.7675 16.1971C38.8101 16.1967 38.8527 16.1964 38.8965 16.1961C39.461 16.1896 40.0397 16.1659 40.5907 16.0397C40.6251 16.0321 40.6594 16.0245 40.6948 16.0167C41.5415 15.8222 42.3413 15.4451 42.8175 14.716C42.919 14.5359 43.0056 14.3492 43.073 14.1549C43.0443 14.1548 43.0155 14.1547 42.9859 14.1546C42.2864 14.1517 41.5869 14.1485 40.8873 14.1449C40.5491 14.1431 40.2108 14.1415 39.8725 14.1401C39.5776 14.139 39.2827 14.1376 38.9878 14.1359C38.8317 14.135 38.6756 14.1343 38.5195 14.1338C38.3725 14.1333 38.2255 14.1326 38.0784 14.1315C38.0246 14.1312 37.9707 14.131 37.9168 14.1309C37.8431 14.1308 37.7693 14.1302 37.6955 14.1296C37.6543 14.1294 37.6131 14.1293 37.5706 14.1291C37.388 14.115 37.2409 14.093 37.1092 13.9665C37.029 13.842 37.009 13.7383 37.0075 13.5934C37.0071 13.5661 37.0068 13.5388 37.0064 13.5107C37.0062 13.4815 37.0061 13.4523 37.0059 13.4223C37.0057 13.3919 37.0055 13.3616 37.0053 13.3303C37.005 13.2661 37.0047 13.202 37.0046 13.1378C37.0042 13.0402 37.0031 12.9425 37.0019 12.8449C37.0017 12.7824 37.0015 12.7199 37.0014 12.6574C37.0009 12.6285 37.0005 12.5995 37 12.5696C37.0007 12.3821 37.0313 12.2525 37.1229 12.0861C37.2701 11.9535 37.4047 11.9415 37.6008 11.9416C37.6706 11.9416 37.6706 11.9416 37.7418 11.9415C37.7935 11.9416 37.8451 11.9417 37.8968 11.9419C37.9511 11.9419 38.0055 11.9419 38.0598 11.9419C38.2074 11.9418 38.355 11.9421 38.5025 11.9423C38.6567 11.9425 38.8109 11.9425 38.9651 11.9426C39.2572 11.9427 39.5492 11.943 39.8413 11.9433C40.1737 11.9437 40.5062 11.9439 40.8386 11.9441C41.5226 11.9445 42.2065 11.9451 42.8905 11.9459C42.8497 11.8897 42.8088 11.8336 42.768 11.7775C42.7339 11.7306 42.7339 11.7306 42.6991 11.6828C42.2608 11.084 41.5049 10.8148 40.7788 10.6857C40.2841 10.6046 39.7918 10.5738 39.2901 10.5713C39.2106 10.5709 39.1311 10.5702 39.0516 10.5695C38.8259 10.5673 38.6002 10.5654 38.3745 10.5643C38.2355 10.5635 38.0965 10.5623 37.9575 10.5607C37.9049 10.5602 37.8522 10.5599 37.7996 10.5598C37.7263 10.5596 37.6529 10.5588 37.5796 10.5579C37.5172 10.5574 37.5172 10.5574 37.4535 10.557C37.2961 10.5376 37.1993 10.4819 37.0955 10.3679C37.0187 10.2499 37.0085 10.1531 37.0075 10.0172C37.0071 9.98148 37.0068 9.94578 37.0064 9.90899C37.0062 9.87042 37.0061 9.83185 37.0059 9.79211C37.0057 9.75237 37.0055 9.71263 37.0053 9.67168C37.005 9.5875 37.0047 9.50332 37.0046 9.41913C37.0042 9.29069 37.0031 9.16227 37.0019 9.03383C37.0017 8.95201 37.0015 8.8702 37.0014 8.78838C37.0009 8.75009 37.0005 8.7118 37 8.67236C37.0006 8.46269 37.0111 8.30632 37.1229 8.12379C37.2357 8.02232 37.3119 8.00542 37.4648 8.00526Z"/>
</mask>
<path d="M37.4648 8.00526C37.5047 8.00496 37.5447 8.00467 37.5859 8.00436C37.6518 8.00468 37.6518 8.00468 37.719 8.005C37.7889 8.00472 37.7889 8.00472 37.8603 8.00443C37.9899 8.00392 38.1195 8.00407 38.2491 8.00433C38.3888 8.0045 38.5286 8.00406 38.6683 8.0037C38.942 8.00309 39.2158 8.00307 39.4896 8.00325C39.712 8.00339 39.9345 8.00334 40.157 8.00315C40.2044 8.00311 40.2044 8.00311 40.2529 8.00307C40.3171 8.00302 40.3814 8.00297 40.4457 8.00291C41.0487 8.00243 41.6516 8.00262 42.2546 8.00302C42.8065 8.00337 43.3584 8.00292 43.9103 8.00208C44.4767 8.00122 45.0431 8.00089 45.6095 8.00112C45.9276 8.00124 46.2457 8.00116 46.5638 8.00055C46.8346 8.00004 47.1054 8.00001 47.3762 8.00062C47.5144 8.00092 47.6526 8.00099 47.7908 8.00046C47.9405 7.99989 48.0902 8.0004 48.2399 8.00102C48.2837 8.00068 48.3275 8.00035 48.3727 8C48.6666 8.00252 48.6666 8.00252 48.8113 8.08549C48.92 8.20668 48.9592 8.29349 48.9602 8.45333C48.9605 8.48353 48.9609 8.51373 48.9612 8.54484C48.9612 8.59339 48.9612 8.59339 48.9611 8.64291C48.9613 8.67646 48.9614 8.71001 48.9616 8.74457C48.9618 8.81549 48.9618 8.8864 48.9617 8.95732C48.9616 9.06552 48.9624 9.17369 48.9633 9.28189C48.9634 9.35088 48.9635 9.41986 48.9634 9.48885C48.9637 9.52107 48.9641 9.5533 48.9644 9.5865C48.9631 9.76537 48.9562 9.90401 48.8406 10.0524C48.6452 10.1521 48.4902 10.1724 48.2713 10.1695C48.241 10.1695 48.2107 10.1695 48.1795 10.1695C48.0801 10.1695 47.9808 10.1686 47.8814 10.1678C47.8122 10.1676 47.743 10.1675 47.6738 10.1674C47.4923 10.167 47.3107 10.1659 47.1292 10.1648C46.9437 10.1637 46.7582 10.1632 46.5728 10.1627C46.2093 10.1616 45.8458 10.1598 45.4823 10.1575C45.5074 10.1958 45.5326 10.234 45.5585 10.2734C45.5918 10.3242 45.6251 10.3751 45.6584 10.4259C45.6749 10.451 45.6915 10.4761 45.7085 10.502C45.9938 10.9383 46.1574 11.4127 46.2854 11.9108C46.3141 11.911 46.3429 11.9112 46.3726 11.9114C46.6443 11.9134 46.9161 11.916 47.1878 11.9191C47.3275 11.9206 47.4672 11.922 47.6069 11.9229C47.7419 11.9239 47.8768 11.9253 48.0117 11.927C48.063 11.9276 48.1144 11.928 48.1658 11.9282C48.238 11.9286 48.3101 11.9296 48.3823 11.9307C48.4233 11.9311 48.4643 11.9315 48.5066 11.9319C48.6703 11.9518 48.7954 12.0031 48.9068 12.1212C49.004 12.2785 48.9932 12.4355 48.9941 12.6126C48.9943 12.6438 48.9945 12.675 48.9947 12.7071C48.995 12.7731 48.9953 12.8392 48.9954 12.9052C48.9958 13.0057 48.9969 13.1062 48.9981 13.2067C48.9983 13.2709 48.9985 13.3352 48.9986 13.3994C48.9991 13.4293 48.9995 13.4591 49 13.4899C48.9992 13.703 48.9729 13.8877 48.8087 14.0454C48.6542 14.1239 48.4954 14.1242 48.3235 14.1239C48.2789 14.1239 48.2343 14.1239 48.1884 14.1238C48.1407 14.1237 48.0929 14.1235 48.0437 14.1233C47.994 14.1232 47.9444 14.1232 47.8947 14.1231C47.7644 14.123 47.6341 14.1227 47.5038 14.1223C47.3707 14.1219 47.2376 14.1218 47.1045 14.1216C46.8436 14.1212 46.5827 14.1206 46.3219 14.1199C46.3149 14.1574 46.3079 14.1949 46.3006 14.2336C46.2911 14.2838 46.2815 14.3341 46.272 14.3844C46.2651 14.4213 46.2651 14.4213 46.2581 14.4589C46.0308 15.6454 45.2451 16.7009 44.2291 17.3896C43.3296 17.9799 42.1006 18.4924 40.9923 18.4679C41.1569 18.6514 41.3257 18.8308 41.4963 19.009C41.6306 19.1493 41.7635 19.2906 41.8959 19.4325C41.9529 19.4932 42.0102 19.5536 42.0679 19.6138C42.2185 19.7712 42.3652 19.9298 42.5049 20.0962C42.6225 20.2363 42.7447 20.37 42.8722 20.5017C43.0288 20.6633 43.1754 20.8305 43.3196 21.0026C43.4048 21.1015 43.4935 21.1962 43.5841 21.2906C43.7307 21.4438 43.8686 21.6016 44.0046 21.7635C44.1115 21.8884 44.2217 22.0103 44.3324 22.1322C44.4966 22.3131 44.657 22.4962 44.8142 22.6828C44.9118 22.7968 45.0121 22.9082 45.1127 23.0198C45.2765 23.2018 45.4329 23.3882 45.5863 23.5784C45.7247 23.7489 45.8699 23.9132 46.0172 24.0767C46.1834 24.2613 46.3443 24.4498 46.5044 24.6393C46.5599 24.7044 46.6154 24.7694 46.6709 24.8344C46.6977 24.866 46.7245 24.8977 46.7521 24.9303C46.8064 24.994 46.8615 25.0572 46.9172 25.1198C46.9436 25.15 46.97 25.1802 46.9972 25.2113C47.0209 25.2379 47.0446 25.2646 47.0691 25.292C47.1361 25.3924 47.1526 25.4676 47.1615 25.5861C47.1023 25.769 47.0377 25.8693 46.8694 25.9718C46.7685 25.9857 46.6821 25.9917 46.5813 25.991C46.5386 25.9916 46.5386 25.9916 46.4951 25.9921C46.4013 25.9931 46.3076 25.993 46.2138 25.9929C46.1484 25.9932 46.0829 25.9935 46.0175 25.9938C45.8805 25.9943 45.7434 25.9943 45.6064 25.9939C45.4311 25.9935 45.2559 25.9947 45.0807 25.9963C44.9456 25.9974 44.8105 25.9974 44.6754 25.9972C44.6108 25.9972 44.5462 25.9976 44.4816 25.9983C43.9136 26.0038 43.9136 26.0038 43.7483 25.8705C43.7182 25.8345 43.6881 25.7985 43.6571 25.7614C43.6302 25.7325 43.6033 25.7035 43.5757 25.6737C43.5521 25.6448 43.5285 25.6159 43.5042 25.5861C43.3757 25.4313 43.2442 25.28 43.1095 25.1302C42.9525 24.9553 42.799 24.7781 42.6475 24.5988C42.5292 24.4609 42.4077 24.3258 42.2863 24.1905C42.173 24.0641 42.062 23.9362 41.9528 23.8065C41.8232 23.6531 41.6875 23.5065 41.549 23.3606C41.4351 23.2375 41.3282 23.1094 41.2204 22.9814C41.1148 22.8588 41.0034 22.7417 40.8918 22.6241C40.8075 22.533 40.7274 22.4396 40.6478 22.3448C40.5067 22.1772 40.3578 22.0185 40.2059 21.86C40.1201 21.7682 40.0391 21.674 39.9588 21.5777C39.7897 21.3764 39.607 21.1889 39.4229 21.0004C39.3189 20.8938 39.218 20.7849 39.1186 20.6743C39.0445 20.5925 38.9689 20.512 38.8933 20.4315C38.7951 20.327 38.6975 20.2221 38.6013 20.116C38.3689 19.8602 38.1309 19.6099 37.8894 19.3621C37.0094 18.458 37.0094 18.458 37.008 18.1576C37.0078 18.123 37.0076 18.0885 37.0073 18.0529C37.0073 18.0157 37.0073 17.9784 37.0072 17.94C37.0071 17.9017 37.007 17.8633 37.0068 17.8238C37.0067 17.7426 37.0066 17.6615 37.0066 17.5803C37.0065 17.4562 37.0058 17.332 37.0051 17.2079C37.005 17.1291 37.005 17.0502 37.0049 16.9714C37.0047 16.9342 37.0044 16.8971 37.0041 16.8589C37.0042 16.8241 37.0044 16.7894 37.0045 16.7536C37.0044 16.7231 37.0044 16.6927 37.0043 16.6613C37.0201 16.5094 37.0704 16.4168 37.1741 16.3019C37.3384 16.1803 37.5283 16.1996 37.7272 16.2014C37.7685 16.2011 37.8099 16.2007 37.8525 16.2003C37.985 16.1993 38.1174 16.1994 38.2499 16.1997C38.4225 16.1992 38.595 16.1983 38.7675 16.1971C38.8101 16.1967 38.8527 16.1964 38.8965 16.1961C39.461 16.1896 40.0397 16.1659 40.5907 16.0397C40.6251 16.0321 40.6594 16.0245 40.6948 16.0167C41.5415 15.8222 42.3413 15.4451 42.8175 14.716C42.919 14.5359 43.0056 14.3492 43.073 14.1549C43.0443 14.1548 43.0155 14.1547 42.9859 14.1546C42.2864 14.1517 41.5869 14.1485 40.8873 14.1449C40.5491 14.1431 40.2108 14.1415 39.8725 14.1401C39.5776 14.139 39.2827 14.1376 38.9878 14.1359C38.8317 14.135 38.6756 14.1343 38.5195 14.1338C38.3725 14.1333 38.2255 14.1326 38.0784 14.1315C38.0246 14.1312 37.9707 14.131 37.9168 14.1309C37.8431 14.1308 37.7693 14.1302 37.6955 14.1296C37.6543 14.1294 37.6131 14.1293 37.5706 14.1291C37.388 14.115 37.2409 14.093 37.1092 13.9665C37.029 13.842 37.009 13.7383 37.0075 13.5934C37.0071 13.5661 37.0068 13.5388 37.0064 13.5107C37.0062 13.4815 37.0061 13.4523 37.0059 13.4223C37.0057 13.3919 37.0055 13.3616 37.0053 13.3303C37.005 13.2661 37.0047 13.202 37.0046 13.1378C37.0042 13.0402 37.0031 12.9425 37.0019 12.8449C37.0017 12.7824 37.0015 12.7199 37.0014 12.6574C37.0009 12.6285 37.0005 12.5995 37 12.5696C37.0007 12.3821 37.0313 12.2525 37.1229 12.0861C37.2701 11.9535 37.4047 11.9415 37.6008 11.9416C37.6706 11.9416 37.6706 11.9416 37.7418 11.9415C37.7935 11.9416 37.8451 11.9417 37.8968 11.9419C37.9511 11.9419 38.0055 11.9419 38.0598 11.9419C38.2074 11.9418 38.355 11.9421 38.5025 11.9423C38.6567 11.9425 38.8109 11.9425 38.9651 11.9426C39.2572 11.9427 39.5492 11.943 39.8413 11.9433C40.1737 11.9437 40.5062 11.9439 40.8386 11.9441C41.5226 11.9445 42.2065 11.9451 42.8905 11.9459C42.8497 11.8897 42.8088 11.8336 42.768 11.7775C42.7339 11.7306 42.7339 11.7306 42.6991 11.6828C42.2608 11.084 41.5049 10.8148 40.7788 10.6857C40.2841 10.6046 39.7918 10.5738 39.2901 10.5713C39.2106 10.5709 39.1311 10.5702 39.0516 10.5695C38.8259 10.5673 38.6002 10.5654 38.3745 10.5643C38.2355 10.5635 38.0965 10.5623 37.9575 10.5607C37.9049 10.5602 37.8522 10.5599 37.7996 10.5598C37.7263 10.5596 37.6529 10.5588 37.5796 10.5579C37.5172 10.5574 37.5172 10.5574 37.4535 10.557C37.2961 10.5376 37.1993 10.4819 37.0955 10.3679C37.0187 10.2499 37.0085 10.1531 37.0075 10.0172C37.0071 9.98148 37.0068 9.94578 37.0064 9.90899C37.0062 9.87042 37.0061 9.83185 37.0059 9.79211C37.0057 9.75237 37.0055 9.71263 37.0053 9.67168C37.005 9.5875 37.0047 9.50332 37.0046 9.41913C37.0042 9.29069 37.0031 9.16227 37.0019 9.03383C37.0017 8.95201 37.0015 8.8702 37.0014 8.78838C37.0009 8.75009 37.0005 8.7118 37 8.67236C37.0006 8.46269 37.0111 8.30632 37.1229 8.12379C37.2357 8.02232 37.3119 8.00542 37.4648 8.00526Z" fill="#665FEE" stroke="white" stroke-width="0.4" mask="url(#path-3-inside-2_686_304)"/>
<path d="M18.0245 33.4946C18.4954 33.7949 18.7802 34 19.0299 34.4991C19.1273 35.6861 19.1273 35.6861 18.7158 36.3303C18.237 36.7946 17.9537 36.8774 17.3019 36.9058C16.706 36.8953 16.528 36.8504 16.0033 36.5187C15.5682 35.8316 15.519 35.2923 15.6786 34.4991C16.2842 33.531 16.9036 33.3337 18.0245 33.4946Z" fill="#665FEE"/>
<path d="M72.4833 35.1691C72.9971 35.5434 73.2431 35.8211 73.4886 36.4038C73.4886 37.1684 73.2022 37.7761 72.6927 38.3396C72.1462 38.5975 71.7399 38.5803 71.1427 38.5175C70.6697 38.3075 70.3949 38.1351 70.085 37.7223C69.9175 37.1746 69.9098 36.7433 69.9698 36.1736C70.6367 35.1518 71.307 34.9884 72.4833 35.1691Z" fill="#665FEE"/>
</svg>
