<svg width="86" height="88" viewBox="0 0 86 88" fill="none" xmlns="http://www.w3.org/2000/svg">
<path d="M69.5905 12.3735C69.7518 12.5132 69.9131 12.6528 70.0793 12.7967C70.1638 12.8685 70.2482 12.9403 70.3353 13.0143C75.0936 17.0798 77.7674 22.7232 78.3098 28.9217C78.716 34.8213 76.8522 40.6345 73.0568 45.1668C72.6897 45.5848 72.3119 45.9888 71.927 46.3905C71.8018 46.5262 71.6767 46.662 71.5477 46.8019C68.4524 50.0556 64.0055 52.5403 59.4973 52.9413C59.5489 53.0426 59.6006 53.1439 59.6538 53.2483C60.3506 54.665 60.4098 56.2808 60.0524 57.8071C59.7003 58.7656 59.1421 59.5531 58.4895 60.3319C58.6003 60.3319 58.7112 60.3319 58.8254 60.3319C59.0669 60.6639 59.0669 60.6639 59.3293 61.1087C59.4159 61.2529 59.5025 61.3971 59.5918 61.5457C60.329 62.9682 60.391 64.5141 60.0537 66.0723C59.5381 67.6253 58.6549 68.517 57.3137 69.4022C57.3602 69.4914 57.4068 69.5806 57.4547 69.6725C57.5156 69.7912 57.5764 69.9098 57.6391 70.0321C57.6995 70.149 57.7599 70.2659 57.8222 70.3864C58.4213 71.705 58.3361 73.3904 57.9016 74.7457C57.5086 75.7052 56.8705 76.4086 56.1379 77.1288C56.2087 77.2766 56.2795 77.4245 56.3524 77.5769C56.4905 77.8695 56.4905 77.8695 56.6313 78.1681C56.7687 78.4574 56.7687 78.4574 56.9088 78.7527C57.5593 80.2896 57.4035 81.7454 56.8865 83.3055C56.3202 84.5597 55.3668 85.5331 54.1091 86.0947C53.3336 86.3454 52.598 86.3902 51.7855 86.3974C51.6134 86.3992 51.6134 86.3992 51.4377 86.4011C51.0543 86.4049 50.6709 86.4075 50.2874 86.4101C50.012 86.4125 49.7366 86.415 49.4612 86.4175C46.9498 86.4394 44.4382 86.4505 41.9267 86.4592C40.0715 86.4657 38.2165 86.4772 36.3613 86.4952C35.0554 86.5075 33.7494 86.5139 32.4434 86.5161C31.6641 86.5176 30.8849 86.5216 30.1057 86.532C29.372 86.5417 28.6386 86.5441 27.9049 86.5411C27.6366 86.5412 27.3683 86.544 27.1001 86.5495C25.7801 86.5754 24.7849 86.5553 23.7608 85.6252C23.6384 85.4911 23.5161 85.357 23.3899 85.2188C22.4193 84.1868 20.8486 83.9761 19.5207 83.6795C19.5285 83.8536 19.5363 84.0277 19.5443 84.2071C19.5506 84.4371 19.5567 84.6672 19.5627 84.8973C19.5683 85.0119 19.574 85.1264 19.5798 85.2444C19.5899 85.7679 19.5693 86.1239 19.2821 86.5683C18.6226 87.029 18.0124 86.9634 17.2259 86.9552C17.0614 86.9561 16.8969 86.957 16.7275 86.958C16.1835 86.9601 15.6397 86.9573 15.0958 86.9543C14.718 86.9543 14.3402 86.9545 13.9624 86.955C13.1706 86.9552 12.3787 86.9531 11.5869 86.9493C10.5713 86.9445 9.55578 86.945 8.54018 86.9471C7.76005 86.9483 6.97993 86.947 6.1998 86.9449C5.8253 86.9442 5.45081 86.9441 5.07631 86.9448C4.55314 86.9452 4.03008 86.9425 3.50692 86.9388C3.27418 86.9399 3.27418 86.9399 3.03673 86.9411C1.99419 86.929 1.99418 86.9289 1.45712 86.6462C0.936161 86.0526 1.02007 85.3592 1.02168 84.6157C1.02111 84.4236 1.02112 84.4236 1.02053 84.2275C1.01947 83.797 1.01961 83.3665 1.01975 82.9359C1.01924 82.6277 1.01867 82.3196 1.01804 82.0114C1.01655 81.1733 1.01616 80.3352 1.01605 79.4971C1.01589 78.7979 1.01528 78.0987 1.01468 77.3995C1.01331 75.7501 1.0129 74.1008 1.01302 72.4514C1.01312 70.7489 1.01135 69.0465 1.00869 67.3441C1.0065 65.8833 1.0056 64.4226 1.00571 62.9619C1.00575 62.089 1.00527 61.2162 1.00349 60.3434C1.00187 59.5225 1.00185 58.7017 1.00308 57.8808C1.00325 57.5795 1.00285 57.2781 1.00184 56.9767C1.00055 56.5654 1.00132 56.1543 1.00261 55.743C1.00175 55.6236 1.00089 55.5042 1 55.3811C1.0046 54.7219 1.04805 54.19 1.38008 53.6131C1.83413 53.2975 2.20641 53.235 2.75202 53.2334C2.89024 53.2322 3.02845 53.231 3.17086 53.2298C3.32104 53.2302 3.47123 53.2306 3.62597 53.2311C3.78527 53.2302 3.94457 53.2293 4.1087 53.2285C4.63543 53.2261 5.16213 53.2263 5.68887 53.2267C6.05496 53.226 6.42105 53.2253 6.78714 53.2245C7.55456 53.2232 8.32196 53.2233 9.08938 53.2242C10.0729 53.2251 11.0565 53.2223 12.04 53.2184C12.7961 53.2159 13.5521 53.2158 14.3082 53.2163C14.6709 53.2162 15.0335 53.2153 15.3961 53.2136C15.9032 53.2116 16.4101 53.2127 16.9172 53.2147C17.067 53.2134 17.2168 53.2121 17.3712 53.2108C18.2473 53.2182 18.8697 53.2981 19.5207 53.9491C19.5601 54.3157 19.5902 54.6834 19.6152 55.0514C19.6363 55.3531 19.6363 55.3531 19.6578 55.6609C19.668 55.8166 19.6782 55.9723 19.6887 56.1327C19.9275 56.0367 20.1652 55.9382 20.4025 55.8387C20.5351 55.7842 20.6676 55.7296 20.8041 55.6734C21.5179 55.2905 21.874 54.8763 22.1244 54.1104C22.2065 53.8291 22.2861 53.5471 22.3637 53.2646C22.4081 53.1101 22.4524 52.9556 22.4982 52.7964C22.6451 52.283 22.7888 51.7687 22.9326 51.2544C23.0358 50.8914 23.1392 50.5285 23.2428 50.1657C23.5168 49.2043 23.7882 48.2422 24.059 47.2799C24.3271 46.3286 24.5973 45.3778 24.8675 44.427C24.974 44.0521 25.0805 43.6771 25.187 43.3022C25.2395 43.1175 25.2919 42.9327 25.346 42.7424C25.5043 42.1852 25.6624 41.6279 25.8206 41.0706C26.1277 39.9883 26.4354 38.9061 26.7434 37.8241C26.7929 37.6499 26.8424 37.4758 26.8935 37.2964C27.1759 36.3044 27.4599 35.3129 27.7463 34.3221C27.8326 34.0226 27.9185 33.723 28.0038 33.4232C28.1204 33.0143 28.2387 32.6059 28.3574 32.1976C28.3909 32.0786 28.4244 31.9596 28.4589 31.837C28.6392 31.2253 28.822 30.734 29.2629 30.2655C30.3231 29.9901 31.4589 30.4203 32.4543 30.7694C32.4485 30.6226 32.4426 30.4758 32.4366 30.3245C32.359 26.7977 33.1805 23.3197 34.8059 20.1874C34.8595 20.0828 34.9132 19.9783 34.9685 19.8706C37.7935 14.4246 42.5142 10.449 48.348 8.55166C55.5187 6.35833 63.7185 7.56225 69.5905 12.3735ZM40.1297 16.7473C37.3571 20.0235 35.3359 24.1005 34.9738 28.4178C34.96 28.5603 34.9461 28.7029 34.9318 28.8497C34.6862 30.8167 34.6862 30.8167 35.3334 32.5842C35.8001 32.9099 35.8001 32.9099 36.3143 33.1741C38.1558 34.2009 39.2623 36.6935 39.8239 38.6429C40.1352 39.9492 40.4153 41.4393 40.0779 42.7634C39.9677 43.2372 39.9278 43.5577 40.0129 44.0389C40.5307 44.7682 41.1722 45.3256 41.8606 45.8866C42.024 46.0204 42.1875 46.1542 42.3559 46.2921C42.8525 46.6779 43.3585 47.0413 43.8762 47.3983C44.1211 47.5691 44.1211 47.5691 44.3709 47.7434C45.4514 48.4536 46.5537 48.9824 47.75 49.4664C47.9521 49.5484 47.9521 49.5484 48.1584 49.6321C50.2004 50.4259 52.1167 50.6874 54.2913 50.7364C54.7271 50.7471 55.1623 50.7641 55.5979 50.7816C60.9354 50.9486 65.7847 48.6964 69.6698 45.1192C71.3121 43.5484 72.5839 41.6938 73.6066 39.6717C73.6586 39.5701 73.7105 39.4685 73.764 39.3638C76.1062 34.6856 76.4505 29.1482 74.8349 24.1871C73.7479 21.034 72.0503 18.3825 69.7434 15.9881C69.6455 15.8797 69.5476 15.7712 69.4468 15.6594C67.083 13.1106 63.6346 11.5194 60.3371 10.6131C60.026 10.5274 60.026 10.5274 59.7085 10.4399C52.6206 8.82153 44.9952 11.4282 40.1297 16.7473ZM30.7746 32.953C30.7004 33.2134 30.7004 33.2134 30.6246 33.479C30.3838 34.3237 30.1429 35.1684 29.902 36.0132C29.857 36.1707 29.8121 36.3282 29.7658 36.4905C29.2223 38.396 28.6783 40.3012 28.1329 42.2061C28.0583 42.4668 28.0583 42.4668 27.9822 42.7328C27.7824 43.4304 27.5827 44.128 27.3829 44.8256C26.8509 46.6835 26.3203 48.5418 25.797 50.4021C25.5836 51.1601 25.3682 51.9175 25.1522 52.6747C25.0589 53.0041 24.9665 53.3337 24.8751 53.6636C24.7521 54.1073 24.6259 54.5498 24.4988 54.9923C24.4655 55.1158 24.4323 55.2393 24.398 55.3665C23.9847 56.7732 22.9103 57.4398 21.7043 58.1483C20.6234 58.4809 20.6234 58.4809 19.5207 58.8202C19.5207 66.1923 19.5207 73.5645 19.5207 81.16C20.5184 81.3817 21.5162 81.6034 22.5441 81.8319C24.6931 82.7774 24.6931 82.7774 25.2767 83.4407C25.8434 83.9431 26.1003 83.9527 26.8478 83.953C26.9573 83.9542 27.0668 83.9554 27.1796 83.9566C27.5454 83.9596 27.9109 83.9565 28.2766 83.9535C28.5393 83.9544 28.8021 83.9556 29.0648 83.9572C29.7776 83.9603 30.4904 83.9581 31.2033 83.9548C31.9501 83.952 32.6968 83.9535 33.4436 83.9544C34.6982 83.9551 35.9527 83.9525 37.2073 83.9478C38.656 83.9424 40.1046 83.9424 41.5533 83.9453C42.9483 83.948 44.3433 83.9468 45.7384 83.944C46.3313 83.9428 46.9241 83.943 47.517 83.9442C48.2162 83.9455 48.9152 83.9435 49.6144 83.9389C49.8703 83.9377 50.1263 83.9377 50.3822 83.9389C51.7187 83.9445 52.812 83.9404 53.9543 83.1756C54.5956 82.485 54.7548 81.829 54.8099 80.9126C54.7745 79.9582 54.4872 79.3551 53.8388 78.6615C52.5202 77.8156 51.1027 77.9268 49.5871 77.9476C49.3769 77.9491 49.1666 77.9506 48.95 77.9522C48.4345 77.9561 47.919 77.9622 47.4035 77.9686C47.4035 77.1926 47.4035 76.4166 47.4035 75.617C47.7861 75.6229 48.1687 75.6287 48.5629 75.6348C48.9382 75.6387 49.3134 75.6418 49.6887 75.6447C49.9472 75.6472 50.2057 75.6507 50.4642 75.6551C52.7744 75.7499 52.7744 75.7499 54.8204 74.8244C54.8949 74.7257 54.9694 74.627 55.0461 74.5252C55.124 74.4265 55.202 74.3278 55.2823 74.226C55.7375 73.5107 55.7292 72.7389 55.634 71.9217C55.3461 71.0298 54.9211 70.4182 54.1223 69.9061C53.4804 69.6921 52.8782 69.7174 52.2097 69.7217C52.0724 69.722 51.9352 69.7222 51.7938 69.7225C51.3557 69.7234 50.9176 69.7255 50.4794 69.7276C50.1823 69.7285 49.8852 69.7292 49.5881 69.7299C48.8599 69.7318 48.1317 69.7347 47.4035 69.7381C47.4035 68.9067 47.4035 68.0752 47.4035 67.2186C47.6407 67.2221 47.8779 67.2256 48.1223 67.2293C49.0063 67.2415 49.8903 67.2492 50.7744 67.2555C51.1563 67.2589 51.5381 67.2635 51.92 67.2693C52.4704 67.2775 53.0207 67.2813 53.5711 67.2842C53.7405 67.2877 53.91 67.2912 54.0845 67.2947C55.1359 67.2951 55.9358 67.1571 56.8098 66.5467C57.616 65.6991 57.7185 64.9705 57.708 63.8363C57.6168 63.0848 57.3111 62.5691 56.8098 62.0116C56.0737 61.4551 55.4049 61.3182 54.4971 61.3206C54.2601 61.3206 54.2601 61.3206 54.0183 61.3207C53.8491 61.3215 53.6799 61.3224 53.5055 61.3233C53.3312 61.3235 53.157 61.3238 52.9774 61.324C52.4212 61.325 51.865 61.3271 51.3088 61.3292C50.9315 61.33 50.5542 61.3308 50.177 61.3315C49.2525 61.3333 48.328 61.3362 47.4035 61.3397C47.4035 60.5083 47.4035 59.6768 47.4035 58.8202C47.6527 58.8237 47.9018 58.8272 48.1585 58.8308C49.0844 58.843 50.0104 58.8507 50.9364 58.8571C51.3368 58.8604 51.7373 58.865 52.1377 58.8709C52.714 58.879 53.2901 58.8828 53.8664 58.8858C54.0449 58.8892 54.2234 58.8927 54.4073 58.8963C55.4346 58.8966 56.0291 58.836 56.8098 58.1483C57.5769 57.2982 57.7012 56.6589 57.685 55.5448C57.6135 54.6964 57.2581 54.1841 56.6313 53.6446C56.0192 53.1888 55.7649 53.0883 55.02 53.086C54.7727 53.0847 54.7727 53.0847 54.5205 53.0833C54.339 53.0831 54.1575 53.0829 53.9705 53.0827C53.7798 53.0819 53.5892 53.081 53.3927 53.0802C52.9776 53.0784 52.5625 53.0769 52.1474 53.0758C51.491 53.0738 50.8347 53.0705 50.1783 53.0668C48.3116 53.0564 46.4449 53.0474 44.5782 53.0418C43.4376 53.0384 42.2969 53.0324 41.1562 53.0249C40.7208 53.0225 40.2854 53.021 39.8499 53.0205C39.2414 53.0197 38.633 53.0158 38.0246 53.0112C37.8438 53.0117 37.6629 53.0122 37.4766 53.0128C37.2279 53.01 37.2279 53.01 36.9742 53.0071C36.8304 53.0065 36.6865 53.006 36.5383 53.0054C36.0558 52.9258 35.8246 52.7793 35.4777 52.4374C35.3437 51.3279 35.6349 50.3661 35.9495 49.3076C35.9976 49.1404 36.0456 48.9732 36.0952 48.8009C36.2481 48.2699 36.4035 47.7396 36.559 47.2093C36.7136 46.6777 36.8676 46.146 37.0211 45.6141C37.1165 45.2841 37.2125 44.9543 37.3094 44.6248C38.0726 42.0006 37.9558 39.5843 36.6286 37.1325C35.4218 35.2537 33.8646 33.9677 31.7486 33.2728C31.5664 33.2128 31.3842 33.1527 31.1965 33.0909C30.9877 33.0226 30.9877 33.0226 30.7746 32.953ZM39.1731 46.8944C38.6742 48.7236 38.6742 48.7236 38.1652 50.5897C40.1607 50.5897 42.1562 50.5897 44.2121 50.5897C43.6343 50.1275 43.1353 49.7635 42.5114 49.3929C41.5917 48.8196 40.8425 48.1526 40.0654 47.4049C39.6924 47.0311 39.6924 47.0311 39.1731 46.8944ZM3.56368 55.7967C3.56368 65.2198 3.56368 74.6428 3.56368 84.3514C7.99805 84.3514 12.4324 84.3514 17.0012 84.3514C17.0012 74.9284 17.0012 65.5053 17.0012 55.7967C12.5668 55.7967 8.13243 55.7967 3.56368 55.7967Z" fill="#665FEE" stroke="#665FEE"/>
<path d="M74.7719 8.0306C75.1712 8.38346 75.5659 8.74085 75.9582 9.1014C76.0996 9.23066 76.241 9.35992 76.3867 9.49311C78.9316 11.9295 80.8664 14.9954 82.341 18.1717C82.4307 18.3592 82.5203 18.5467 82.6127 18.7399C85.6708 25.4424 85.8306 33.6188 83.3403 40.5221C82.2851 43.2781 80.9567 45.9009 79.1496 48.2381C79.0143 48.4137 78.879 48.5893 78.7395 48.7702C78.0318 49.6576 77.2827 50.4783 76.4621 51.2616C76.3235 51.4001 76.185 51.5387 76.0422 51.6815C75.9036 51.82 75.7651 51.9586 75.6223 52.1014C75.5482 52.1832 75.4742 52.2651 75.3979 52.3494C72.3466 55.6175 67.3628 58.223 63.0246 59.1561C62.8029 59.1561 62.5812 59.1561 62.3528 59.1561C62.1865 58.3801 62.0202 57.6041 61.8488 56.8045C62.533 56.5449 63.2173 56.2901 63.9097 56.0533C67.9838 54.6417 71.5691 52.4754 74.6145 49.4139C74.6945 49.3343 74.7745 49.2548 74.8569 49.1728C79.6685 44.3346 82.2981 37.3873 82.3555 30.606C82.2977 23.7424 79.7989 17.1565 75.1184 12.1248C75.0329 12.032 74.9474 11.9391 74.8593 11.8434C70.1416 6.76848 63.358 3.76885 56.4483 3.51053C51.9273 3.41241 47.6084 4.24457 43.5402 6.24593C43.4343 6.29743 43.3283 6.34894 43.2191 6.402C40.989 7.49831 39.0301 8.8673 37.225 10.5751C36.8215 10.9491 36.8215 10.9491 36.3832 11.2975C31.6005 15.1502 29.1134 22.2049 28.4755 28.0819C28.3913 28.9209 28.3198 29.7606 28.2551 30.6014C27.4236 30.6014 26.5922 30.6014 25.7356 30.6014C25.5331 22.7057 28.833 15.4389 34.132 9.73194C44.4068 -1.06424 62.1944 -2.10053 74.7719 8.0306Z" fill="#665FEE" stroke="#665FEE"/>
<path d="M54.1223 14.6445C54.9537 14.6445 55.7852 14.6445 56.6418 14.6445C56.6418 16.1966 56.6418 17.7486 56.6418 19.3477C57.1407 19.3477 57.6395 19.3477 58.1535 19.3477C59.8322 19.6759 61.0215 20.6817 62.0168 22.0352C62.693 23.2393 62.5598 24.5568 62.5207 25.8984C61.6893 25.8984 60.8578 25.8984 60.0012 25.8984C59.9873 25.5901 59.9735 25.2818 59.9592 24.9641C59.8751 24.0122 59.7665 23.4518 59.1613 22.707C58.1115 21.9309 57.0004 21.9279 55.739 21.9407C55.5588 21.9367 55.3787 21.9327 55.1931 21.9285C53.9462 21.9308 52.9717 22.1529 51.9387 22.875C50.9688 23.8935 50.8813 24.8554 50.8948 26.2055C50.9525 27.0571 51.2073 27.5119 51.7917 28.1135C53.0097 28.8814 54.2874 28.9999 55.697 29.0793C57.6601 29.223 59.3859 29.5039 60.841 30.9375C62.1863 32.502 62.6333 34.0189 62.5778 36.0678C62.4155 37.719 61.6856 39.0216 60.5051 40.1758C59.2559 41.1069 58.2108 41.5195 56.6418 41.5195C56.6418 43.0716 56.6418 44.6236 56.6418 46.2227C55.8104 46.2227 54.9789 46.2227 54.1223 46.2227C54.1223 44.6706 54.1223 43.1186 54.1223 41.5195C53.4571 41.5195 52.792 41.5195 52.1067 41.5195C50.5791 41.0171 49.3666 40.0872 48.5793 38.6641C48.2594 37.8768 48.2014 37.1723 48.2224 36.3335C48.2293 35.9386 48.2362 35.5436 48.2434 35.1367C49.0748 35.1367 49.9063 35.1367 50.7629 35.1367C50.7768 35.445 50.7906 35.7534 50.8049 36.071C50.8863 37.0168 51.0145 37.5809 51.6028 38.3281C52.6934 38.9868 53.7012 38.9126 54.9411 38.9055C55.1496 38.9089 55.3582 38.9122 55.573 38.9157C56.9546 38.915 57.9884 38.8102 59.0032 37.8242C59.0797 37.7134 59.1561 37.6025 59.2348 37.4883C59.354 37.322 59.354 37.322 59.4756 37.1523C59.9746 36.2683 59.9798 35.2006 59.7302 34.2339C59.3427 33.2234 58.7498 32.6492 57.8176 32.1133C57.3436 31.9553 56.9904 31.9094 56.4962 31.879C51.2861 31.5213 51.2861 31.5213 49.4566 29.6193C48.1591 28.0237 48.0467 26.2038 48.2434 24.2188C48.5417 22.5938 49.5006 21.4415 50.7649 20.4178C51.7638 19.739 52.9158 19.3477 54.1223 19.3477C54.1223 17.7956 54.1223 16.2436 54.1223 14.6445Z" fill="#665FEE"/>
</svg>
