<svg width="88" height="88" viewBox="0 0 88 88" fill="none" xmlns="http://www.w3.org/2000/svg">
<path d="M48.6811 1.0001C48.9124 1.00023 48.9124 1.00023 49.1485 1.00037C58.1761 1.02485 66.9814 4.17378 73.8239 10.1334C74.0835 10.6527 74.0412 11.0731 73.9919 11.6451C73.7399 12.0545 73.7399 12.0545 73.32 12.317C72.4858 12.4066 72.141 12.4191 71.4192 11.9719C71.235 11.8168 71.0534 11.6587 70.8739 11.4981C70.6681 11.3264 70.4616 11.1554 70.2545 10.9851C70.15 10.8983 70.0454 10.8115 69.9376 10.7221C63.2925 5.35511 53.8368 3.07562 45.4372 3.91855C42.7321 4.22505 40.1269 4.74026 37.5426 5.59824C37.4238 5.63762 37.3049 5.677 37.1824 5.71758C30.9078 7.8426 25.1847 11.817 21.0817 17.0201C20.9446 17.1899 20.8076 17.3596 20.6664 17.5345C19.0544 19.5532 17.8286 21.7499 16.7145 24.0748C16.8197 24.1902 16.925 24.3056 17.0334 24.4245C17.1707 24.5759 17.3079 24.7272 17.4494 24.8832C17.5858 25.0332 17.7222 25.1833 17.8627 25.3379C18.2262 25.7545 18.2262 25.7545 18.5622 26.2584C18.6171 26.1561 18.672 26.0539 18.7285 25.9485C22.332 19.2505 22.332 19.2505 23.4333 18.6998C24.6328 18.5837 24.6328 18.5837 25.2074 19.0462C25.5284 19.7022 25.4498 20.0078 25.2809 20.7154C25.0403 21.162 24.7447 21.5591 24.4411 21.9647C23.1773 23.7305 22.1277 25.5779 21.2182 27.5497C21.1651 27.6604 21.112 27.7712 21.0573 27.8853C20.8525 28.3484 20.7292 28.6822 20.8166 29.1874C21.2164 29.8365 21.685 30.421 22.163 31.014C22.9699 32.0335 23.7541 33.0623 24.4936 34.1319C24.5711 34.2426 24.6486 34.3534 24.7284 34.4674C25.4799 35.5672 25.5801 36.5327 25.4489 37.8482C25.1563 38.7926 24.6328 39.3438 23.9372 40.0318C23.7768 40.192 23.6165 40.3523 23.4563 40.5127C21.5971 42.3719 21.5971 42.3719 19.7379 44.2311C19.9377 44.7606 20.1519 45.2308 20.4649 45.7021C20.5427 45.8194 20.6204 45.9367 20.7005 46.0576C20.7847 46.1823 20.8689 46.3071 20.9557 46.4356C21.0886 46.6332 21.0886 46.6332 21.2241 46.8347C22.8375 49.2143 24.5488 51.4866 26.4567 53.6373C26.6633 53.8752 26.8697 54.1131 27.0761 54.3512C27.2614 54.5613 27.4468 54.7712 27.6325 54.9811C27.739 55.1018 27.8454 55.2225 27.9551 55.3469C28.9091 56.4186 29.9018 57.4437 30.9184 58.4559C31.0685 58.6067 31.2187 58.7575 31.3734 58.9129C32.2268 59.7651 33.097 60.5823 34.0153 61.3639C34.1772 61.5059 34.3392 61.6479 34.5061 61.7943C37.3569 64.2514 40.442 66.3644 43.5895 68.4186C44.2417 68.1516 44.6508 67.7317 45.1426 67.2342C45.2254 67.151 45.3082 67.0677 45.3935 66.9819C45.6573 66.7162 45.9199 66.4494 46.1825 66.1825C46.3584 66.0049 46.5343 65.8274 46.7104 65.65C47.0359 65.3218 47.3608 64.9931 47.6853 64.664C47.9028 64.4439 47.9028 64.4439 48.1247 64.2193C48.2755 64.0666 48.4263 63.9139 48.5816 63.7565C49.5058 62.8465 50.4071 62.6329 51.6842 62.6348C52.7494 62.7992 53.5931 63.3484 54.4445 63.9779C54.5449 64.0508 54.6452 64.1237 54.7486 64.1988C55.4569 64.7162 56.1539 65.248 56.8485 65.7835C56.94 65.8533 57.0315 65.9231 57.1257 65.995C57.4981 66.2801 57.8624 66.5669 58.2113 66.8806C58.5185 67.1654 58.5185 67.1654 59.0426 67.4107C59.6411 67.3046 60.0124 67.1628 60.5544 66.9068C60.7646 66.8162 60.975 66.7259 61.1855 66.6359C63.6428 65.5583 65.9155 64.1299 67.945 62.3717C68.0801 62.255 68.2152 62.1383 68.3544 62.018C74.6509 56.4594 78.1858 48.9733 78.7233 40.5987C79.0862 32.8234 76.2597 25.0701 71.0538 19.3107C65.7361 13.5385 58.3445 9.84599 50.4523 9.43397C42.9004 9.1615 35.005 11.3959 29.3614 16.6133C28.7534 17.1716 28.2954 17.3712 27.4645 17.3561C26.875 17.0357 26.6732 16.8267 26.4567 16.1908C26.4567 15.5581 26.5975 15.3507 26.9606 14.8365C27.2769 14.5283 27.5873 14.2453 27.9264 13.9652C28.023 13.8851 28.1196 13.8049 28.2191 13.7224C31.3093 11.2047 34.9232 9.31829 38.7184 8.11777C38.8445 8.0778 38.9707 8.03782 39.1006 7.99664C47.3448 5.43937 56.3913 6.31656 64.0502 10.2594C65.7282 11.1488 67.2869 12.1586 68.7848 13.3248C68.8803 13.3989 68.9757 13.4731 69.0741 13.5494C72.3525 16.1328 75.1276 19.2634 77.1833 22.899C77.2429 23.0027 77.3026 23.1065 77.364 23.2133C81.5805 30.594 82.6513 39.5413 80.5426 47.7584C79.2584 52.3974 77.1475 56.7015 73.9919 60.3561C73.8812 60.4851 73.7706 60.6142 73.6566 60.7471C70.2514 64.6209 66.4287 67.1777 61.8981 69.5943C62.1639 69.8079 62.4299 70.0214 62.696 70.2347C62.8441 70.3536 62.9922 70.4725 63.1447 70.5949C63.5089 70.8835 63.8763 71.1655 64.2497 71.442C72.6894 67.1653 79.346 60.1205 82.4224 51.0679C83.4599 47.8828 84.244 44.6131 84.278 41.2496C84.2796 41.1139 84.2812 40.9783 84.2829 40.8385C84.3124 37.761 84.2535 34.8165 83.5661 31.8014C83.5346 31.6591 83.5032 31.5168 83.4708 31.3702C82.2905 26.1529 79.9365 21.2761 76.5586 17.129C76.4811 17.0324 76.4036 16.9358 76.3237 16.8362C76.1728 16.6488 76.0198 16.463 75.8644 16.2792C75.5053 15.8322 75.3398 15.5442 75.272 14.9697C75.3576 14.3384 75.5279 14.0788 76.0075 13.6607C76.5744 13.5558 76.5744 13.5558 77.1833 13.6607C78.0229 14.2679 78.6218 14.988 79.2409 15.8128C79.336 15.939 79.4312 16.0653 79.5292 16.1953C82.224 19.8169 84.217 23.8069 85.5817 28.1061C85.626 28.2453 85.6704 28.3846 85.716 28.5281C85.9988 29.442 86.2255 30.3613 86.4215 31.2975C86.4542 31.4506 86.4869 31.6038 86.5206 31.7616C87.5499 36.8181 87.5021 42.3808 86.4215 47.4225C86.3873 47.5859 86.3531 47.7494 86.3179 47.9178C85.2217 52.98 82.9748 57.891 79.8708 62.0357C79.7608 62.1845 79.7608 62.1845 79.6487 62.3363C75.9551 67.3048 71.1675 71.2699 65.5934 73.9615C65.4826 73.9615 65.3717 73.9615 65.2575 73.9615C65.2692 74.12 65.2809 74.2785 65.2929 74.4418C65.302 74.6575 65.3111 74.8731 65.3205 75.0953C65.3322 75.3058 65.3438 75.5162 65.3559 75.7331C65.24 77.6222 63.8207 79.073 62.545 80.3233C62.3801 80.4881 62.2153 80.6531 62.0506 80.8183C61.708 81.1609 61.3637 81.5017 61.0181 81.8412C60.5777 82.2739 60.1412 82.7103 59.7058 83.148C59.367 83.4879 59.0265 83.8261 58.6855 84.1639C58.4462 84.4013 58.208 84.6398 57.9699 84.8784C57.1543 85.6763 56.4206 86.3208 55.3473 86.7271C55.1758 86.7952 55.0043 86.8632 54.8275 86.9332C53.8827 87.1847 52.9075 87.137 51.9355 87.1366C51.7627 87.1368 51.7627 87.1368 51.5864 87.1369C42.7518 87.1122 34.3114 82.1751 27.4645 76.985C27.3368 76.8881 27.2091 76.7913 27.0775 76.6916C24.9633 75.0813 22.9213 73.4044 20.9557 71.6152C20.6211 71.3131 20.2809 71.0201 19.9374 70.7281C18.4796 69.457 17.1171 68.052 15.8747 66.5709C15.7374 66.4111 15.6001 66.2513 15.4587 66.0867C14.3265 64.7663 13.2392 63.4148 12.1794 62.0357C12.0968 61.9285 12.0143 61.8213 11.9292 61.7108C10.7132 60.1257 9.56185 58.5108 8.48404 56.8287C8.40176 56.7016 8.31948 56.5744 8.23471 56.4434C7.97582 56.0415 7.72033 55.6376 7.46573 55.233C7.3855 55.1084 7.30526 54.9838 7.22259 54.8555C6.76392 54.1153 6.49719 53.5225 6.46842 52.6295C6.70987 52.1361 6.70987 52.1361 7.14029 51.7896C7.60933 51.6803 8.01947 51.6581 8.48404 51.7896C9.24383 52.3694 9.67127 53.2709 10.1532 54.0782C11.1934 55.7888 12.3204 57.4128 13.5231 59.0123C13.6004 59.1153 13.6778 59.2184 13.7574 59.3245C16.5965 63.0929 19.6759 66.8495 23.2653 69.9303C23.4347 70.0787 23.6039 70.2272 23.7731 70.3758C25.287 71.6983 26.8593 72.9304 28.4723 74.1295C28.5936 74.2198 28.7149 74.3101 28.8398 74.4032C31.7239 76.5416 34.7018 78.4999 37.8786 80.1764C38.0459 80.2656 38.0459 80.2656 38.2166 80.3566C42.5579 82.6567 48.8281 85.4209 53.8356 84.2076C55.0738 83.6986 55.8737 82.9346 56.8052 81.9873C56.9554 81.837 57.1056 81.6867 57.2603 81.5318C57.5759 81.2152 57.8908 80.898 58.2046 80.5796C58.6061 80.1724 59.0098 79.7674 59.4144 79.3631C59.8019 78.9755 60.1879 78.5865 60.574 78.1975C60.7187 78.0524 60.8634 77.9074 61.0125 77.7579C61.2128 77.5544 61.2128 77.5544 61.4171 77.3468C61.5346 77.228 61.6522 77.1092 61.7733 76.9867C62.4369 76.2213 62.4787 75.5661 62.4512 74.5783C62.3401 73.5645 61.7013 73.0751 60.9638 72.4498C59.9899 71.6771 58.9877 70.9431 57.984 70.2098C56.7716 69.3231 55.5774 68.4139 54.3888 67.4957C53.7198 66.9817 53.0461 66.4746 52.3567 65.9883C52.2411 65.9061 52.1255 65.8239 52.0064 65.7393C51.5667 65.5207 51.2994 65.5165 50.8122 65.5631C50.4996 65.7586 50.4996 65.7586 50.2367 66.0512C50.0795 66.211 50.0795 66.211 49.9191 66.374C49.8084 66.4905 49.6978 66.607 49.5839 66.7271C49.4678 66.8456 49.3516 66.9641 49.232 67.0862C48.8608 67.4654 48.4926 67.8472 48.1247 68.2296C47.7565 68.6105 47.3877 68.9907 47.0173 69.3694C46.787 69.6051 46.5579 69.8421 46.3303 70.0805C45.6037 70.8261 44.9914 71.3082 43.9149 71.358C41.2873 71.2759 38.3531 68.4381 36.3669 66.9068C36.2756 66.8368 36.1843 66.7667 36.0903 66.6945C34.9781 65.8388 33.8855 64.963 32.8185 64.0514C32.7324 63.9779 32.6462 63.9044 32.5575 63.8287C30.9321 62.4264 29.3742 60.9534 27.8568 59.4357C27.6002 59.1795 27.3423 58.9246 27.0843 58.6698C26.1372 57.7279 25.2579 56.7659 24.4276 55.718C24.123 55.3392 23.8055 54.9805 23.4753 54.6241C16.9016 47.2939 16.9016 47.2939 16.8405 44.3465C16.8362 44.2225 16.8318 44.0984 16.8274 43.9706C16.9834 42.8061 17.7691 42.1173 18.5805 41.3552C18.8171 41.1267 19.0535 40.898 19.2898 40.6693C19.6615 40.3121 20.0342 39.9562 20.4091 39.6024C20.7719 39.2588 21.1304 38.9112 21.4885 38.5628C21.6017 38.4581 21.7149 38.3534 21.8315 38.2456C22.4798 37.612 22.4798 37.612 22.6111 36.7287C22.4309 36.1849 22.2586 35.8392 21.9038 35.3943C21.7952 35.2554 21.6866 35.1164 21.5747 34.9733C21.457 34.8273 21.3394 34.6813 21.2182 34.5309C20.9712 34.2161 20.7245 33.9012 20.4781 33.586C20.2913 33.3489 20.2913 33.3489 20.1008 33.1071C19.5629 32.4164 19.0464 31.7108 18.5307 31.0035C17.7595 29.953 16.9852 28.9048 16.2001 27.8646C16.112 27.7463 16.024 27.628 15.9333 27.5062C15.3878 26.7879 14.8495 26.1658 14.027 25.7545C13.613 25.7083 13.613 25.7083 13.1452 25.702C12.9884 25.6957 12.8316 25.6894 12.6701 25.683C11.4002 25.868 10.4837 27.0628 9.62111 27.9263C9.4746 28.0721 9.32809 28.2179 9.17715 28.3681C8.86855 28.6757 8.56039 28.9838 8.25263 29.2923C7.78201 29.7634 7.30919 30.2323 6.83618 30.701C6.53608 31.0008 6.23612 31.3006 5.9363 31.6006C5.79509 31.7402 5.65389 31.8799 5.50841 32.0238C4.5624 32.9773 3.89009 33.7253 3.87605 35.1253C3.87411 35.3094 3.87216 35.4935 3.87015 35.6831C3.87188 35.878 3.87361 36.0728 3.8754 36.2735C3.87691 36.4763 3.87843 36.679 3.87999 36.8879C3.94492 40.2883 4.86652 43.637 6.25255 46.7401C6.55076 47.4507 6.56845 47.8355 6.46842 48.5982C6.12198 49.0287 6.12198 49.0287 5.62857 49.2701C5.07455 49.2606 4.65869 49.2514 4.20018 48.9191C3.82488 48.4399 3.61685 47.8988 3.39249 47.3385C3.34165 47.2123 3.2908 47.0861 3.23842 46.9561C1.86362 43.4773 1.04002 40.0652 1.00943 36.3155C1.00632 36.0965 1.00321 35.8774 1 35.6517C1.01157 33.8839 1.22502 32.5011 2.453 31.1729C2.5878 31.0268 2.72261 30.8807 2.86151 30.7302C3.92068 29.6072 5.00187 28.5068 6.08835 27.4103C6.38418 27.1108 6.67894 26.8103 6.97265 26.5088C7.40183 26.0683 7.83427 25.6313 8.26752 25.1948C8.39653 25.0611 8.52554 24.9274 8.65846 24.7897C9.68864 23.7633 10.9059 22.8951 12.407 22.817C12.6194 22.8268 12.8318 22.8365 13.0507 22.8465C13.2679 22.8541 13.485 22.8617 13.7088 22.8695C13.8692 22.8792 14.0297 22.889 14.195 22.899C14.2593 22.6866 14.2593 22.6866 14.3249 22.4699C14.5467 21.8469 14.8265 21.2747 15.1398 20.6944C15.2288 20.5292 15.2288 20.5292 15.3197 20.3605C17.6145 16.1668 20.9849 12.2078 24.777 9.29355C24.8685 9.22283 24.96 9.15211 25.0542 9.07925C31.8902 3.82567 40.0588 0.980788 48.6811 1.0001Z" fill="#665FEE" stroke="#665FEE"/>
<path d="M47.6207 30.9614C48.2746 31.2977 48.6925 31.7939 48.9644 32.4731C49.0048 32.8728 49.0048 32.8728 49.0026 33.3204C49.0025 33.4885 49.0025 33.6566 49.0025 33.8297C49.0008 34.01 48.999 34.1902 48.9972 34.3759C48.9968 34.5614 48.9963 34.7468 48.9958 34.9379C48.9939 35.5301 48.9897 36.1222 48.9854 36.7144C48.9837 37.1159 48.9822 37.5175 48.9808 37.919C48.9771 38.9032 48.9715 39.8874 48.9644 40.8716C49.2424 40.9021 49.2424 40.9021 49.5261 40.9333C50.1402 41.0395 50.1402 41.0395 50.5601 41.3965C50.8924 42.0333 50.8341 42.3712 50.6441 43.0552C50.4552 43.3806 50.4552 43.3806 50.1402 43.5591C49.7484 43.5663 49.3563 43.5668 48.9644 43.5591C48.9679 43.6564 48.9715 43.7538 48.9751 43.8541C48.9891 44.2982 48.9978 44.7421 49.0064 45.1863C49.0121 45.3395 49.0177 45.4927 49.0235 45.6505C49.0341 46.3813 49.0367 46.7992 48.6508 47.4361C48.2251 47.819 48.0257 47.9263 47.4527 47.9263C46.5056 47.5438 46.5056 47.5438 46.2769 47.0864C46.2628 46.8186 46.2589 46.5502 46.2605 46.282C46.2611 46.1239 46.2616 45.9659 46.2622 45.803C46.2643 45.5549 46.2643 45.5549 46.2664 45.3018C46.2672 45.135 46.2679 44.9683 46.2687 44.7965C46.2707 44.384 46.2735 43.9716 46.2769 43.5591C45.9832 43.563 45.9832 43.563 45.6836 43.5671C44.9577 43.5762 44.2318 43.582 43.5058 43.5868C43.1915 43.5893 42.8772 43.5927 42.563 43.5971C42.1114 43.6032 41.6599 43.6061 41.2083 43.6083C40.9973 43.6122 40.9973 43.6122 40.782 43.6162C39.7963 43.6165 39.7963 43.6165 39.4381 43.3235C39.0871 42.8873 39.128 42.512 39.1481 41.969C39.2896 41.1566 39.7209 40.5067 40.1461 39.8113C40.3461 39.4721 40.546 39.1329 40.7458 38.7936C40.8526 38.6146 40.9594 38.4355 41.0694 38.2511C41.4235 37.6501 41.7671 37.0441 42.1079 36.4355C42.2263 36.2248 42.3447 36.0142 42.4632 35.8035C42.636 35.4961 42.8087 35.1887 42.9804 34.8807C45.3836 30.5803 45.3836 30.5803 47.6207 30.9614ZM46.109 34.9927C46.0302 35.1307 45.9514 35.2688 45.8703 35.4111C45.5764 35.9261 45.2824 36.441 44.9884 36.9559C44.8615 37.1783 44.7346 37.4007 44.6077 37.623C44.4247 37.9437 44.2417 38.2644 44.0586 38.585C44.0024 38.6835 43.9462 38.7821 43.8883 38.8836C43.6418 39.315 43.3924 39.7424 43.1297 40.1642C42.8898 40.513 42.8898 40.513 42.9176 40.8716C44.0261 40.8716 45.1347 40.8716 46.2769 40.8716C46.2769 38.9315 46.2769 36.9915 46.2769 34.9927C46.2215 34.9927 46.1661 34.9927 46.109 34.9927Z" fill="#665FEE"/>
<path d="M37 31.6497C37.945 32.3555 38.644 33.5112 38.8863 34.6567C39.2324 37.7902 37.1615 40.2357 35.4121 42.6248C34.8222 43.4315 34.2497 44.2502 33.6793 45.0708C33.8233 45.0741 33.9674 45.0775 34.1158 45.0809C34.6517 45.094 35.1876 45.1086 35.7235 45.1241C35.9552 45.1305 36.1869 45.1364 36.4185 45.1417C36.7521 45.1494 37.0857 45.1593 37.4192 45.1692C37.7201 45.1771 37.7201 45.1771 38.027 45.1852C38.5226 45.2359 38.8089 45.3061 39.2223 45.5747C39.5719 46.0242 39.5575 46.2663 39.5372 46.845C39.3902 47.4224 39.3902 47.4224 39.0972 47.706C38.6552 47.963 38.3931 47.9919 37.8845 47.9968C37.6364 48.0008 37.6364 48.0008 37.3833 48.0049C37.2057 48.0049 37.0281 48.005 36.8451 48.005C36.5699 48.0069 36.5699 48.0069 36.2891 48.0089C35.9013 48.0107 35.5135 48.0112 35.1256 48.0104C34.5324 48.0103 33.9395 48.0172 33.3463 48.0247C32.9694 48.0256 32.5924 48.026 32.2155 48.026C32.0382 48.0288 31.861 48.0315 31.6783 48.0343C30.4515 48.0228 30.4515 48.0228 29.7876 47.5359C29.3777 46.9368 29.3651 46.6243 29.4801 45.9106C29.7041 45.5066 29.9124 45.1872 30.1939 44.8293C30.2692 44.7288 30.3445 44.6283 30.4221 44.5247C30.6654 44.2008 30.9124 43.8799 31.1598 43.5591C31.4864 43.1295 31.8114 42.6988 32.1361 42.2678C32.219 42.1579 32.3018 42.0481 32.3872 41.9348C33.0605 41.0369 33.7118 40.1248 34.3512 39.2024C34.4419 39.0733 34.5325 38.9442 34.626 38.8112C35.4563 37.6012 36.181 36.5058 35.9561 34.9999C35.8067 34.4498 35.6767 34.0757 35.1805 33.7749C34.2722 33.543 33.501 33.5112 32.6295 33.8799C32.0775 34.4068 31.8252 34.9291 31.5252 35.6239C31.3277 36.0005 31.3277 36.0005 30.8238 36.3364C30.1341 36.4242 29.7922 36.4445 29.2281 36.0215C28.8553 35.2447 28.9145 34.6379 29.1441 33.8169C29.7343 32.5894 30.6805 31.5561 31.9261 30.9824C33.6608 30.4199 35.4747 30.7036 37 31.6497Z" fill="#665FEE"/>
<path d="M64.494 30.8746C64.6773 30.8725 64.8606 30.8703 65.0494 30.8682C65.345 30.8702 65.345 30.8702 65.6465 30.8723C65.8494 30.8716 66.0523 30.871 66.2614 30.8703C66.6902 30.8699 67.119 30.8711 67.5477 30.8739C68.2055 30.8775 68.8629 30.874 69.5206 30.8697C69.9369 30.8701 70.3532 30.871 70.7695 30.8723C70.9669 30.8709 71.1643 30.8696 71.3676 30.8682C71.5504 30.8703 71.7331 30.8724 71.9214 30.8746C72.1629 30.8754 72.1629 30.8754 72.4092 30.8762C72.816 30.9615 72.816 30.9615 73.1199 31.2633C73.4242 31.8264 73.4057 32.3599 73.3199 32.9771C73.1651 33.432 73.0065 33.8328 72.8016 34.2625C72.7463 34.3837 72.6911 34.5048 72.6342 34.6297C72.4521 35.0282 72.2666 35.4251 72.0811 35.8221C71.8866 36.2457 71.693 36.6698 71.4994 37.0938C71.3643 37.3897 71.2288 37.6855 71.093 37.9811C70.2443 39.8319 69.4343 41.6996 68.6211 43.5661C68.4369 43.9887 68.2523 44.411 68.0676 44.8334C67.9872 45.0186 67.9872 45.0186 67.9051 45.2075C67.753 45.5551 67.5979 45.9012 67.441 46.2467C67.3856 46.371 67.3301 46.4953 67.273 46.6234C67.2166 46.7443 67.1601 46.8652 67.102 46.9898C67.052 47.0986 67.002 47.2074 66.9504 47.3195C66.7691 47.5904 66.7691 47.5904 66.1917 47.8634C65.5674 47.9291 65.287 47.9105 64.7535 47.5904C64.3649 47.0075 64.3829 46.7085 64.4777 46.0289C64.6994 45.0953 65.1336 44.2454 65.5408 43.3807C65.6888 43.0602 65.8359 42.7392 65.983 42.4183C66.0857 42.1944 66.1887 41.9705 66.2919 41.7468C66.8898 40.4486 67.4591 39.138 68.0289 37.8272C68.6615 36.3733 69.2985 34.9219 69.9605 33.4811C69.6758 33.4863 69.6758 33.4863 69.3853 33.4917C68.6803 33.5039 67.9754 33.5116 67.2704 33.518C66.9654 33.5213 66.6604 33.5259 66.3554 33.5317C65.9168 33.5399 65.4783 33.5437 65.0396 33.5467C64.9034 33.5501 64.7673 33.5536 64.627 33.5572C64.0209 33.5574 63.6548 33.5365 63.1557 33.1778C62.7891 32.637 62.8147 32.2711 62.9058 31.6334C63.3897 31.0075 63.713 30.8772 64.494 30.8746Z" fill="#665FEE"/>
<path d="M59.2946 30.8985C59.4245 30.8972 59.5544 30.8959 59.6882 30.8945C60.1405 30.9781 60.2657 31.1134 60.5543 31.4654C60.778 32.9616 60.1255 34.243 59.5668 35.5963C59.464 35.8509 59.3614 36.1055 59.259 36.3602C58.9892 37.0294 58.7163 37.6973 58.4427 38.3649C58.1686 39.0352 57.8976 39.7068 57.6263 40.3782C57.1787 41.4847 56.7308 42.5911 56.2767 43.695C56.0255 44.3058 55.7783 44.9179 55.5362 45.5323C55.4577 45.7289 55.4577 45.7289 55.3777 45.9296C55.277 46.1819 55.1776 46.4346 55.0796 46.688C54.8382 47.2888 54.724 47.558 54.1715 47.9263C53.5843 48.0175 53.0231 48.0397 52.5023 47.7373C52.1331 47.0858 52.1196 46.5477 52.3148 45.8321C52.3982 45.6132 52.4843 45.3954 52.5725 45.1784C52.6196 45.0572 52.6667 44.9359 52.7152 44.8109C52.8728 44.4067 53.0339 44.0039 53.1952 43.6011C53.3073 43.3165 53.4192 43.0318 53.531 42.747C53.7753 42.1261 54.0213 41.5058 54.2685 40.886C54.63 39.9795 54.9875 39.0715 55.3444 38.1632C55.6473 37.3932 55.9516 36.6237 56.2563 35.8544C56.406 35.4762 56.5554 35.0979 56.7045 34.7194C56.9148 34.1862 57.1268 33.6537 57.3393 33.1214C57.4022 32.9611 57.4651 32.8008 57.5299 32.6356C57.589 32.4884 57.6482 32.3412 57.7092 32.1896C57.7601 32.0612 57.8111 31.9329 57.8636 31.8007C58.2123 31.1177 58.5296 30.8908 59.2946 30.8985Z" fill="#665FEE"/>
</svg>
